<svg xmlns="http://www.w3.org/2000/svg" enable-background="new 0 0 69 69" viewBox="0 0 69 69"><path fill="#FFCA78" d="M34.38766,66.00139H22.08618l-3.97808-2.0139l0-18.97802
		c5.95563-3.25818,10.06259-8.00342,11.66647-14.76172c0.129-0.73413,0.5159-1.37895,1.05165-1.82533
		c0.53569-0.45631,1.23014-0.72418,1.97417-0.72418c1.7063,0,3.07534,1.37885,3.07534,3.07538
		c-0.40384,4.00696-1.27328,7.75317-2.74802,11.16052l13.26375,0.00003c1.09129,0,1.9841,0.88294,1.9841,1.9841v1.95432
		c0,1.09124-0.89281,1.9841-1.9841,1.9841c1.09129,0,1.9841,0.88294,1.9841,1.98411v1.85513c0,1.09135-0.89281,1.9841-1.9841,1.9841
		h-0.97219c1.0913,0,1.98411,0.88294,1.98411,1.98411v2.34135c0,1.09111-0.89281,1.9841-1.98411,1.9841h-0.97219
		c1.10116,0,1.9841,0.88282,1.9841,1.9841v2.04357c0,1.09123-0.88294,1.98411-1.9841,1.98411h-4.10711H34.38766z"/><rect width="10.712" height="20.988" x="7.394" y="45.009" fill="#71C7E5"/><path fill="#FA8465" d="M35.93748,20.44976c0,6.47227,5.7409,11.71222,12.8344,11.71222c2.78527,0,5.3702-0.8116,7.4842-2.20415
		l3.89527,1.70113l-0.48877-5.01749c1.23233-1.79345,1.9437-3.91748,1.9437-6.19171c0-6.46236-5.75093-11.71234-12.8344-11.71234
		C41.67838,8.73743,35.93748,13.9874,35.93748,20.44976z"/><path fill="#EFEFEF" d="M42.34167,14.71372c0,6.47227-5.7409,11.71222-12.83441,11.71222c-2.78526,0-5.3702-0.8116-7.4842-2.20414
		l-3.89527,1.70113l0.48877-5.0175c-1.23232-1.79345-1.9437-3.91748-1.9437-6.19171c0-6.46236,5.75093-11.71234,12.8344-11.71234
		C36.60077,3.00139,42.34167,8.25136,42.34167,14.71372z"/><path fill="#4E535F" d="M15.5093,62.01971c0,0.72762-0.58707,1.32292-1.31464,1.32292c-0.72762,0-1.31469-0.5953-1.31469-1.32292
			c0-0.72762,0.58707-1.31464,1.31469-1.31464C14.92223,60.70507,15.5093,61.29209,15.5093,62.01971z"/><path fill="#414141" d="M46.39139,41.43467l-12.5127-0.00098c1.26124-3.12793,2.10011-6.69629,2.49708-10.66016
			c0-1.97168-1.604-3.5752-3.5752-3.5752c-1.78801,0-3.23068,1.31802-3.51221,2.93457
			c-1.49451,6.29553-5.19708,10.99829-11.31342,14.37695H7.39383c-0.27637,0-0.5,0.22363-0.5,0.5v5.95215
			c0,0.27637,0.22363,0.5,0.5,0.5s0.5-0.22363,0.5-0.5v-5.45215h9.71436c0,5.95388,0,10.88643,0,19.99121H7.89383v-8.58691
			c0-0.27637-0.22363-0.5-0.5-0.5s-0.5,0.22363-0.5,0.5v9.08691c0,0.27637,0.22363,0.5,0.5,0.5h10.71436
			c0.27637,0,0.5-0.22363,0.5-0.5v-1.20007l3.25244,1.64636c0.06982,0.03516,0.14697,0.05371,0.22559,0.05371h12.30127
			c0.27637,0,0.5-0.22363,0.5-0.5s-0.22363-0.5-0.5-0.5H22.20535l-3.59717-1.82129v-18.375
			c6.20361-3.47266,10.12402-8.49902,11.65918-14.96973c0.21313-1.2193,1.27254-2.13672,2.5332-2.13672
			c1.41992,0,2.5752,1.15527,2.57764,2.52539c-0.41992,4.16699-1.30615,7.76953-2.70947,11.01172
			c-0.06689,0.1543-0.05127,0.33203,0.04102,0.47266s0.24951,0.22559,0.41797,0.22559l13.26367,0.00098
			c0.81836,0,1.48438,0.66504,1.48438,1.4834v1.9541c0,0.81348-0.65826,1.47485-1.46985,1.48291
			c-0.00598-0.00024-0.01093-0.00342-0.01697-0.00342H39.9241c-0.27637,0-0.5,0.22363-0.5,0.5s0.22363,0.5,0.5,0.5h6.44305
			c0.00848,0.00049,0.01563,0.00488,0.02423,0.00488c0.81836,0,1.48438,0.66602,1.48438,1.48438v1.85547
			c0,0.81445-0.65997,1.47595-1.47308,1.48218c-0.00482,0-0.00885-0.00269-0.01373-0.00269H39.9241c-0.27637,0-0.5,0.22363-0.5,0.5
			s0.22363,0.5,0.5,0.5h5.47571c0.00684,0.00024,0.01251,0.00391,0.01941,0.00391c0.81836,0,1.48438,0.66602,1.48438,1.48438v2.3418
			c0,0.81421-0.65955,1.47534-1.47211,1.48218c-0.00464-0.00012-0.00854-0.00269-0.01324-0.00269H39.9241
			c-0.27637,0-0.5,0.22363-0.5,0.5s0.22363,0.5,0.5,0.5h4.50354c0.00684,0.00024,0.01251,0.00391,0.01941,0.00391
			c0.81836,0,1.48438,0.66602,1.48438,1.48438v2.04394c0,0.81836-0.66602,1.4834-1.48438,1.4834h-4.10693
			c-0.27637,0-0.5,0.22363-0.5,0.5s0.22363,0.5,0.5,0.5h4.10693c1.37012,0,2.48438-1.11426,2.48438-2.4834v-2.04394
			c0-0.63184-0.23682-1.20898-0.62646-1.64746c0.93408-0.35742,1.59863-1.2627,1.59863-2.32031v-2.3418
			c0-0.63184-0.23682-1.20898-0.62646-1.64746c0.93408-0.35742,1.59863-1.2627,1.59863-2.32031v-1.85547
			c0-0.80957-0.38965-1.53027-0.99121-1.98438c0.60156-0.4541,0.99121-1.1748,0.99121-1.98438v-1.9541
			C48.87576,42.54892,47.76151,41.43467,46.39139,41.43467z"/><path fill="#414141" d="M38.35574 65.50107h-1.98389c-.27637 0-.5.22363-.5.5s.22363.5.5.5h1.98389c.27637 0 .5-.22363.5-.5S38.63211 65.50107 38.35574 65.50107zM7.39383 55.42978c.27637 0 .5-.22363.5-.5v-1.9834c0-.27637-.22363-.5-.5-.5s-.5.22363-.5.5v1.9834C6.89383 55.20615 7.11746 55.42978 7.39383 55.42978zM60.17618 26.76889c1.26001-1.90015 1.92999-4.08008 1.92999-6.32007 0-6.72998-5.97998-12.20996-13.32996-12.20996-2.54004 0-4.92004.6499-6.95001 1.79004-2.02002-4.42004-6.78003-7.53003-12.32001-7.53003-7.34998 0-13.33002 5.47998-13.33002 12.21997 0 2.23999.66003 4.41992 1.92999 6.32007l-.47998 4.83984c-.01001.17004.06.34009.21002.45007.13995.09998.32996.12.48999.04993l3.64996-1.58984c2.22003 1.3999 4.82001 2.13989 7.53003 2.13989 2.53998 0 4.91998-.65991 6.95001-1.79004 2.01001 4.41003 6.76996 7.52002 12.32001 7.52002 2.70996 0 5.29999-.72998 7.52997-2.13989l3.64001 1.59985c.07001.03003.15002.04004.21997.04004.25.04004.5-.21997.5-.5 0-.05994-.00995-.12988-.02997-.18994L60.17618 26.76889zM29.5062 25.92881c-2.60999 0-5.09998-.73999-7.21002-2.13-.07996-.04993-.17999-.07996-.26996-.07996-.07001 0-.14001.02002-.20001.04004l-3.12 1.36987.40997-4.16992c.01001-.12-.01996-.23999-.08997-.34009-1.21002-1.75989-1.85004-3.80994-1.85004-5.8999 0-6.18994 5.53003-11.21997 12.33002-11.21997 6.86042 0 12.34003 5.08744 12.34003 11.21997C41.84622 20.90805 36.2872 25.92881 29.5062 25.92881zM59.24619 26.35886c-.06.09998-.08997.20996-.08002.32996l.40002 4.17004-3.10999-1.35999c-.15002-.07007-.33002-.05005-.47003.04004-2.10999 1.38989-4.60999 2.11987-7.20996 2.11987-5.19 0-9.64001-2.91992-11.46002-7.04993 3.34998-2.22009 5.53003-5.82996 5.53003-9.89002 0-1.30005-.22003-2.56006-.64001-3.73999 1.89996-1.11011 4.15997-1.73999 6.57001-1.73999 6.79999 0 12.32996 5.03003 12.32996 11.20996C61.10617 22.5488 60.46622 24.58884 59.24619 26.35886z"/><path fill="#414141" d="M26.64621 13.90879h-.78003c-.27997 0-.5.22998-.5.5 0 .28003.22003.5.5.5h.78003c.26996 0 .5-.21997.5-.5C27.14621 14.13877 26.91617 13.90879 26.64621 13.90879zM29.89621 13.90879h-.78003c-.26996 0-.5.22998-.5.5 0 .28003.23004.5.5.5h.78003c.27997 0 .5-.21997.5-.5C30.39621 14.13877 30.17618 13.90879 29.89621 13.90879zM33.14621 13.90879h-.78003c-.26996 0-.5.22998-.5.5 0 .28003.23004.5.5.5h.78003c.27997 0 .5-.21997.5-.5C33.64621 14.13877 33.42618 13.90879 33.14621 13.90879zM52.41043 16.50595h-7.27686c-.27637 0-.5.22363-.5.5s.22363.5.5.5h7.27686c.27637 0 .5-.22363.5-.5S52.6868 16.50595 52.41043 16.50595zM52.41043 19.94931h-7.27686c-.27637 0-.5.22363-.5.5s.22363.5.5.5h7.27686c.27637 0 .5-.22363.5-.5S52.6868 19.94931 52.41043 19.94931zM52.41043 23.39365h-7.27686c-.27637 0-.5.22363-.5.5s.22363.5.5.5h7.27686c.27637 0 .5-.22363.5-.5S52.6868 23.39365 52.41043 23.39365z"/></svg>