<svg xmlns="http://www.w3.org/2000/svg" viewBox="0 0 69 69" xmlns:v="https://vecta.io/nano"><path fill="#ffca78" d="M34.388 66h-12.3l-3.978-2.014V45.01c5.956-3.258 10.063-8.003 11.666-14.762.13-.734.516-1.38 1.052-1.825a3.04 3.04 0 0 1 1.974-.724 3.07 3.07 0 0 1 3.075 3.075c-.404 4.007-1.273 7.753-2.748 11.16H46.39c1.09 0 1.984.883 1.984 1.984v1.954a1.99 1.99 0 0 1-1.984 1.984c1.09 0 1.984.883 1.984 1.984v1.855a1.99 1.99 0 0 1-1.984 1.984h-.972c1.09 0 1.984.883 1.984 1.984v2.34a1.99 1.99 0 0 1-1.984 1.984h-.972c1.1 0 1.984.883 1.984 1.984v2.044c0 1.09-.883 1.984-1.984 1.984h-10.06z"/><path fill="#71c7e5" d="M7.394 45.01h10.712v20.988H7.394z"/><path fill="#fa8465" d="M35.937 20.45c0 6.472 5.74 11.712 12.834 11.712 2.785 0 5.37-.812 7.484-2.204l3.895 1.7-.49-5.017c1.232-1.793 1.944-3.917 1.944-6.192 0-6.462-5.75-11.712-12.834-11.712-7.094 0-12.834 5.25-12.834 11.712z"/><path fill="#efefef" d="M42.342 14.714c0 6.472-5.74 11.712-12.834 11.712-2.785 0-5.37-.812-7.484-2.204l-3.895 1.7.49-5.017c-1.232-1.793-1.944-3.917-1.944-6.192C16.673 8.25 22.424 3 29.507 3 36.6 3 42.342 8.25 42.342 14.714z"/><path fill="#4e535f" d="M15.51 62.02a1.32 1.32 0 0 1-1.315 1.323 1.32 1.32 0 0 1-1.315-1.323c0-.728.587-1.315 1.315-1.315s1.315.587 1.315 1.315z"/><path d="M46.4 41.435l-12.513-.001c1.26-3.128 2.1-6.696 2.497-10.66a3.58 3.58 0 0 0-3.575-3.575 3.58 3.58 0 0 0-3.512 2.935C27.794 36.428 24.1 41.13 17.975 44.5H7.394a.5.5 0 0 0-.5.5v5.952a.5.5 0 1 0 1 0V45.5h9.714v20H7.894v-8.587a.5.5 0 1 0-1 0V66a.5.5 0 0 0 .5.5h10.714a.5.5 0 0 0 .5-.5v-1.2l3.252 1.646a.5.5 0 0 0 .226.054h12.3a.5.5 0 1 0 0-1h-12.18l-3.597-1.82V45.305c6.204-3.473 10.124-8.5 11.66-14.97a2.58 2.58 0 0 1 2.533-2.137c1.42 0 2.575 1.155 2.578 2.525-.42 4.167-1.306 7.77-2.7 11.012a.5.5 0 0 0 .459.698l13.264.001c.818 0 1.484.665 1.484 1.483v1.954c0 .813-.658 1.475-1.47 1.483l-6.482-.003a.5.5 0 1 0 0 1h6.443c.008 0 .016.005.024.005.818 0 1.484.666 1.484 1.484v1.855c0 .814-.66 1.476-1.473 1.482l-6.48-.003a.5.5 0 1 0 0 1H45.4c.838.004 1.504.67 1.504 1.488v2.342c0 .814-.66 1.475-1.472 1.482l-5.507-.003a.5.5 0 1 0 0 1h4.504c.838.004 1.504.67 1.504 1.488v2.044c0 .818-.666 1.483-1.484 1.483h-4.11a.5.5 0 1 0 0 1h4.107c1.37 0 2.484-1.114 2.484-2.483V61.97a2.47 2.47 0 0 0-.626-1.647 2.49 2.49 0 0 0 1.6-2.32v-2.342a2.47 2.47 0 0 0-.626-1.647 2.49 2.49 0 0 0 1.6-2.32V49.84a2.53 2.53 0 0 0-.99-1.984 2.48 2.48 0 0 0 .99-1.984v-1.954c0-1.37-1.114-2.483-2.484-2.483zM38.356 65.5h-1.984a.5.5 0 1 0 0 1h1.984a.5.5 0 1 0 0-1zM7.394 55.43a.5.5 0 0 0 .5-.5v-1.983a.5.5 0 1 0-1 0v1.983a.5.5 0 0 0 .5.5zm52.782-28.66c1.26-1.9 1.93-4.08 1.93-6.32 0-6.73-5.98-12.2-13.33-12.2-2.54 0-4.92.65-6.95 1.8-2.02-4.42-6.78-7.53-12.32-7.53-7.35 0-13.33 5.48-13.33 12.22 0 2.24.66 4.42 1.93 6.32l-.48 4.84a.53.53 0 0 0 .2.45.52.52 0 0 0 .5.05l3.65-1.6c2.22 1.4 4.82 2.14 7.53 2.14 2.54 0 4.92-.66 6.95-1.8 2 4.4 6.77 7.52 12.32 7.52 2.7 0 5.3-.73 7.53-2.14l3.64 1.6a.57.57 0 0 0 .22.04c.25.04.5-.22.5-.5 0-.06-.01-.13-.03-.2l-.46-4.7zm-30.67-.84c-2.6 0-5.1-.74-7.2-2.13a.53.53 0 0 0-.27-.08c-.07 0-.14.02-.2.04l-3.12 1.37.4-4.17c.01-.12-.02-.24-.1-.34-1.2-1.76-1.85-3.8-1.85-5.9 0-6.2 5.53-11.22 12.33-11.22 6.86 0 12.34 5.087 12.34 11.22 0 6.2-5.56 11.2-12.34 11.2zm29.74.43a.54.54 0 0 0-.08.33l.4 4.17-3.1-1.36c-.15-.07-.33-.05-.47.04-2.1 1.4-4.6 2.12-7.2 2.12-5.2 0-9.64-2.92-11.46-7.05 3.35-2.22 5.53-5.83 5.53-9.9 0-1.3-.22-2.56-.64-3.74 1.9-1.1 4.16-1.74 6.57-1.74 6.8 0 12.33 5.03 12.33 11.2 0 2.1-.64 4.14-1.86 5.9zm-32.6-12.45h-.78a.5.5 0 0 0-.5.5c0 .28.22.5.5.5h.78a.5.5 0 0 0 .5-.5.51.51 0 0 0-.5-.5zm3.25 0h-.78a.51.51 0 0 0-.5.5.5.5 0 0 0 .5.5h.78c.28 0 .5-.22.5-.5a.5.5 0 0 0-.5-.5zm3.25 0h-.78a.51.51 0 0 0-.5.5.5.5 0 0 0 .5.5h.78c.28 0 .5-.22.5-.5a.5.5 0 0 0-.5-.5zM52.4 16.506h-7.277a.5.5 0 1 0 0 1H52.4a.5.5 0 1 0 0-1zm0 3.443h-7.277a.5.5 0 1 0 0 1H52.4a.5.5 0 1 0 0-1zm0 3.444h-7.277a.5.5 0 1 0 0 1H52.4a.5.5 0 1 0 0-1z" fill="#414141"/></svg>