<svg xmlns="http://www.w3.org/2000/svg" data-name="Layer 1" viewBox="0 0 512 512">
    <rect width="359" height="452" x="110.446" y="52.5" fill="#e7e7f2" rx="30"/>
    <path fill="#dcdce5" d="M439.44568,52.49985h-45a30.00016,30.00016,0,0,1,30,30v392a29.99985,29.99985,0,0,1-30,30h45a30,30,0,0,0,30.00012-30v-392A30.00026,30.00026,0,0,0,439.44568,52.49985Z"/>
    <path fill="#a8d9f5" d="M424.45,101.5018v217a3.99425,3.99425,0,0,1-4,4h-261a4.00565,4.00565,0,0,1-4-4v-217a3.999,3.999,0,0,1,4-4h261A4.00529,4.00529,0,0,1,424.45,101.5018Z"/>
    <path fill="#469ed6" d="M423.31006,321.3016a4.02,4.02,0,0,1-2.86011,1.2002H280.08008L351.73,250.8519a2.99707,2.99707,0,0,1,4.29.0498Z"/>
    <path fill="#7dc7a2" d="M311.88,322.5018H159.45a3.9699,3.9699,0,0,1-2.92993-1.28028l74.84-89.1997a3.00218,3.00218,0,0,1,4.6,0l61.41,73.18994Z"/>
    <circle cx="110.446" cy="94.5" r="87" fill="#56bc8d"/>
    <circle cx="320.946" cy="171" r="28.5" fill="#fee27d"/>
    <path d="M320.94531,135.00033a36,36,0,1,0,36,36A36.04063,36.04063,0,0,0,320.94531,135.00033Zm0,57a21,21,0,1,1,21-21A21.02421,21.02421,0,0,1,320.94531,192.00033Zm103.5,168h-269a7.5,7.5,0,0,0,0,15h269a7.5,7.5,0,0,0,0-15ZM144.30371,61.40658,93.96777,111.74252,77.47852,95.25229a7.49989,7.49989,0,0,0-10.60743,10.60547l21.793,21.79394a7.50079,7.50079,0,0,0,10.60742.001L154.91113,72.014a7.50058,7.50058,0,0,0-10.60742-10.60743ZM439.4502,45.00131H190.91089A94.488,94.488,0,1,0,102.9502,188.70346V474.50131a37.54226,37.54226,0,0,0,37.5,37.5h299a37.54227,37.54227,0,0,0,37.5-37.5v-392A37.54227,37.54227,0,0,0,439.4502,45.00131Zm-80.24708,198.377a7.502,7.502,0,0,0-10.60644,0L297.854,294.12l-58.44775-69.65674a7.50022,7.50022,0,0,0-11.49023,0L162.9502,301.888v-128.855a94.59163,94.59163,0,0,0,41.40856-68.03174H416.9502V301.11752Zm50.41846,71.623H315.37524l-7.84191-9.3457,46.36706-46.36719Zm-113.82751,0H171.5282l62.13293-74.04883,57.89014,68.99219.001.00146Zm-185.34876-141.001a79.5,79.5,0,1,1,79.5-79.5A79.58944,79.58944,0,0,1,110.44531,174.00033Zm351.50489,300.501a22.52586,22.52586,0,0,1-22.5,22.5h-299a22.52586,22.52586,0,0,1-22.5-22.5V188.70248a93.77077,93.77077,0,0,0,30-7.47168V322.346a7.5528,7.5528,0,0,0,.03857.91943l.0022.01611q.037.35523.10766.70606c.00818.04.01929.0791.02808.11963.04321.19775.092.394.15137.58838.015.04882.0332.09668.04931.1455.06018.1836.12488.36573.19947.54493.01855.04443.03991.0874.05932.13134.07874.17969.16211.35694.25537.53077.02014.0371.04273.07324.06348.11035.09766.17431.20007.34668.3125.51416.022.03271.04614.06347.0686.0957.11438.165.23316.32764.36206.48437.02967.03614.06226.06983.09253.105.125.14648.25244.2915.39026.42968.04822.04883.10083.09278.15051.13965.1128.10742.22168.2168.34253.31836.01465.01221.03052.022.04517.03418.0581.04785.12085.09033.18042.13672a7.4682,7.4682,0,0,0,2.32935,1.23291c.0144.00439.02783.01074.04235.01514a7.46605,7.46605,0,0,0,1.45325.29687c.05151.00537.10449.0044.15625.00879.19446.01563.38892.02881.58374.0293.012,0,.02368.00195.03565.00195h269a7.49944,7.49944,0,0,0,7.5-7.5v-225a7.49944,7.49944,0,0,0-7.5-7.5H204.83569a93.87219,93.87219,0,0,0-6.41113-30H439.4502a22.52586,22.52586,0,0,1,22.5,22.5Zm-37.50489-69.501h-269a7.5,7.5,0,0,0,0,15h269a7.5,7.5,0,0,0,0-15Zm0,45h-269a7.5,7.5,0,0,0,0,15h269a7.5,7.5,0,0,0,0-15Z"/>
</svg>