<svg xmlns="http://www.w3.org/2000/svg" viewBox="0 0 512 512" xmlns:v="https://vecta.io/nano"><rect width="359" height="452" x="110.446" y="52.5" fill="#e7e7f2" rx="30"/><path fill="#dcdce5" d="M439.446 52.5h-45a30 30 0 0 1 30 30v392a30 30 0 0 1-30 30h45a30 30 0 0 0 30-30v-392a30 30 0 0 0-30-30z"/><path fill="#a8d9f5" d="M424.45 101.502v217a3.994 3.994 0 0 1-4 4h-261a4.006 4.006 0 0 1-4-4v-217a3.999 3.999 0 0 1 4-4h261a4.005 4.005 0 0 1 4 4z"/><path fill="#469ed6" d="M423.3 321.302a4.02 4.02 0 0 1-2.86 1.2H280.08l71.65-71.65a2.997 2.997 0 0 1 4.29.05z"/><path fill="#7dc7a2" d="M311.88 322.502H159.45a3.97 3.97 0 0 1-2.93-1.28l74.84-89.2a3.002 3.002 0 0 1 4.6 0l61.4 73.2z"/><circle cx="110.446" cy="94.5" r="87" fill="#56bc8d"/><circle cx="320.946" cy="171" r="28.5" fill="#fee27d"/><path d="M320.945 135a36 36 0 1 0 36 36 36.041 36.041 0 0 0-36-36zm0 57a21 21 0 1 1 21-21 21.024 21.024 0 0 1-21 21zm103.5 168h-269a7.5 7.5 0 0 0 0 15h269a7.5 7.5 0 0 0 0-15zM144.304 61.407l-50.336 50.336-16.49-16.5a7.5 7.5 0 0 0-10.607 10.605l21.793 21.794a7.501 7.501 0 0 0 10.607.001l55.64-55.64a7.501 7.501 0 0 0-10.607-10.607zM439.45 45H190.91a94.488 94.488 0 1 0-87.961 143.702V474.5a37.542 37.542 0 0 0 37.5 37.5h299a37.542 37.542 0 0 0 37.5-37.5v-392a37.542 37.542 0 0 0-37.5-37.5zm-80.247 198.377a7.502 7.502 0 0 0-10.606 0l-50.743 50.742-58.448-69.657a7.5 7.5 0 0 0-11.49 0l-64.966 77.425V173.033a94.592 94.592 0 0 0 41.409-68.032h212.59v196.116zM409.622 315h-94.246l-7.842-9.346 46.367-46.367zm-113.828 0H171.528l62.133-74.05 57.89 68.994zm-185.35-141a79.5 79.5 0 1 1 79.5-79.5 79.589 79.589 0 0 1-79.5 79.5zM461.95 474.5a22.526 22.526 0 0 1-22.5 22.5h-299a22.526 22.526 0 0 1-22.5-22.5v-285.8a93.771 93.771 0 0 0 30-7.472v141.115a7.553 7.553 0 0 0 .039.919l.002.016q.037.355.108.706l.028.12.15.588.05.146.2.545.06.13.255.53.063.1.313.514.07.096.362.484.093.105.4.43.15.14.343.318.226.17a7.468 7.468 0 0 0 2.329 1.233l.042.015a7.466 7.466 0 0 0 1.453.297l.156.01.584.03c.012 0 .024.002.036.002h269a7.499 7.499 0 0 0 7.5-7.5v-225a7.499 7.499 0 0 0-7.5-7.5H204.836a93.872 93.872 0 0 0-6.411-30H439.45a22.526 22.526 0 0 1 22.5 22.5zM424.445 405h-269a7.5 7.5 0 0 0 0 15h269a7.5 7.5 0 0 0 0-15zm0 45h-269a7.5 7.5 0 0 0 0 15h269a7.5 7.5 0 0 0 0-15z"/></svg>