<svg id="Capa_1" enable-background="new 0 0 512.016 512.016" height="512" viewBox="0 0 512.016 512.016" width="512" xmlns="http://www.w3.org/2000/svg"><g><path d="m372 136.008h-327c-24.813 0-45 20.187-45 45v225c0 25.541 21.404 45 43.553 45h328.447c24.813 0 45-20.187 45-45v-225c0-24.813-20.187-45-45-45z" fill="#3de9f2"/><path d="m416.998 181.008v225c0 24.81-20.18 45-45 45h-163.5v-315h163.5c10.835 0 21.106 3.859 29.18 10.78l-.006.006c9.678 8.257 15.826 20.529 15.826 34.214z" fill="#00cef2"/><path d="m401.18 146.788-183.372 175.648c-3.823 3.662-9.838 3.71-13.719.109l-188.859-175.247c7.93-7.02 18.37-11.29 29.77-11.29h327c11.12 0 21.32 4.06 29.18 10.78z" fill="#70ffff"/><path d="m401.178 146.788-183.37 175.65c-2.55 2.45-6.09 3.28-9.31 2.49v-188.92h163.5c11.06 0 21.279 4.008 29.18 10.78z" fill="#3de9f2"/><path d="m402.001 303.402c-16.542 0-30-13.458-30-30v-5h60v5c0 16.542-13.458 30-30 30z" fill="#f23900"/><path d="m431.998 268.398v5c0 16.55-13.46 30-30 30v-35z" fill="#e20016"/><path d="m510.416 249.3-28.416-56.833v-51.459c0-44.112-35.888-80-80-80s-80 35.888-80 80v51.459l-28.416 56.833c-4.978 9.954 2.27 21.708 13.416 21.708h190c11.129 0 18.402-11.739 13.416-21.708z" fill="#ff9100"/><path d="m496.998 271.008h-95v-210c44.11 0 80 35.89 80 80v51.46l28.42 56.83c4.98 9.97-2.29 21.71-13.42 21.71z" fill="#f50"/></g></svg>