<svg xmlns="http://www.w3.org/2000/svg" viewBox="0 0 47.5 47.5" xmlns:v="https://vecta.io/nano"><defs><clipPath id="A"><path d="M0 38h38V0H0v38z"/></clipPath></defs><g clip-path="url(#A)" transform="matrix(1.25 0 0 -1.25 0 47.5)"><path d="M37 10a4 4 0 0 0-4-4H5a4 4 0 0 0-4 4v18a4 4 0 0 0 4 4h28a4 4 0 0 0 4-4V10z" fill="#ccd6dd"/><g fill="#99aab5"><path d="M12.95 19.364L1.636 8.05c-.026-.028-.037-.063-.06-.1a3.98 3.98 0 0 1 1.385-1.384c.03.023.063.033.1.06L14.365 17.95a1.001 1.001 0 1 1-1.416 1.414M36.423 7.96c-.02.028-.033.063-.06.1L25.05 19.364a1 1 0 1 1-1.415-1.414L34.95 6.636c.027-.027.062-.037.1-.06a3.98 3.98 0 0 1 1.384 1.384"/><path d="M33 32H5a4 4 0 0 1-4-4v-1.03l14.527-14.495c1.895-1.894 4.99-1.894 6.885 0L37 26.99V28a4 4 0 0 1-4 4"/></g><path d="M33 32H5c-1.588 0-2.95-.934-3.595-2.275L16.17 14.958a4 4 0 0 1 5.657 0l14.767 14.767C35.95 31.066 34.59 32 33 32" fill="#e1e8ed"/><path d="M28 20.22a4.99 4.99 0 0 1-4.986 4.987 4.98 4.98 0 0 1-4.053-2.087 4.98 4.98 0 0 1-4.051 2.087 4.99 4.99 0 0 1-4.987-4.987c0-.39.05-.77.134-1.133.693-4.302 5.476-8.84 8.904-10.087 3.428 1.246 8.212 5.785 8.904 10.086.085.365.135.743.135 1.134" fill="#e75a70"/></g></svg>