<svg id="Layer_1" enable-background="new 0 0 256 256" height="512" viewBox="0 0 256 256" width="512" xmlns="http://www.w3.org/2000/svg"><path d="m225.273 16.512h-194.545c-7.858 0-14.228 6.37-14.228 14.227v53.212c0 7.858 6.37 14.228 14.228 14.228h194.545c7.858 0 14.227-6.37 14.227-14.228v-53.212c0-7.857-6.37-14.227-14.227-14.227z" fill="#8ac5dc"/><g fill="#3a312a"><path d="m225.273 15.012h-162.086c-.829 0-1.5.672-1.5 1.5s.671 1.5 1.5 1.5h162.086c7.018 0 12.727 5.71 12.727 12.728v53.212c0 7.018-5.709 12.728-12.727 12.728h-194.545c-7.018-.001-12.728-5.711-12.728-12.729v-53.212c0-7.018 5.71-12.728 12.728-12.728h18.752c.829 0 1.5-.672 1.5-1.5s-.671-1.5-1.5-1.5h-18.752c-8.673.001-15.728 7.056-15.728 15.728v53.212c0 8.672 7.055 15.728 15.728 15.728h194.545c8.672 0 15.727-7.056 15.727-15.728v-53.212c0-8.672-7.055-15.727-15.727-15.727z"/><path d="m48.169 55.4c-.586-.972-1.522-1.785-2.81-2.441s-3.418-1.305-6.393-1.945c-1.202-.251-1.963-.521-2.284-.812-.331-.28-.496-.596-.496-.946 0-.481.2-.889.601-1.225.4-.336.997-.504 1.788-.504.961 0 1.715.226 2.261.677.546.45.904 1.172 1.074 2.163l6.415-.375c-.281-2.284-1.16-3.949-2.637-4.996-1.478-1.046-3.624-1.57-6.438-1.57-2.293 0-4.099.288-5.416.864s-2.304 1.367-2.96 2.374-.984 2.076-.984 3.207c0 1.724.641 3.141 1.923 4.252 1.272 1.112 3.4 2.004 6.385 2.675 1.823.4 2.985.826 3.486 1.277.5.45.751.961.751 1.532 0 .601-.263 1.129-.789 1.585s-1.275.684-2.246.684c-1.302 0-2.304-.445-3.005-1.337-.431-.551-.716-1.353-.856-2.404l-6.475.405c.19 2.224 1.006 4.057 2.449 5.499 1.442 1.442 4.036 2.164 7.783 2.164 2.133 0 3.901-.309 5.303-.925 1.402-.615 2.494-1.52 3.275-2.711.781-1.192 1.172-2.494 1.172-3.906.002-1.203-.291-2.289-.877-3.261z"/><path d="m66.807 43.801v13.435c0 1.222-.333 2.164-.999 2.83-.666.665-1.585.998-2.757.998-1.182 0-2.106-.338-2.772-1.013-.666-.676-.999-1.614-.999-2.815v-13.435h-6.791v13.122c0 1.081.21 2.322.631 3.724.261.871.744 1.717 1.45 2.537.706.821 1.485 1.454 2.336 1.899.852.445 1.911.743 3.178.894s2.437.226 3.508.226c1.853 0 3.44-.246 4.763-.736.951-.35 1.86-.958 2.727-1.824.866-.865 1.502-1.876 1.908-3.032s.608-2.385.608-3.687v-13.123z"/><path d="m97.358 56.069c-.746-.927-1.911-1.58-3.493-1.961 1.042-.36 1.833-.852 2.374-1.473.811-.932 1.217-2.048 1.217-3.351 0-1.552-.568-2.854-1.705-3.906-1.137-1.051-2.767-1.577-4.89-1.577h-12.741v22.025h11.749c.5 0 1.518-.1 3.05-.301 1.152-.15 2.013-.391 2.584-.721.921-.531 1.647-1.252 2.179-2.164.531-.911.796-1.938.796-3.079 0-1.401-.374-2.566-1.12-3.492zm-12.372-7.806h3.005c1.031 0 1.755.181 2.171.541.415.36.624.861.624 1.503 0 .69-.208 1.219-.624 1.585-.416.365-1.155.548-2.216.548h-2.959v-4.177zm5.949 12.207c-.481.416-1.307.624-2.479.624h-3.47v-4.462h3.456c1.192 0 2.025.197 2.502.593.476.396.713.919.713 1.57-.001.702-.241 1.26-.722 1.675z"/><path d="m119.955 55.4c-.586-.972-1.522-1.785-2.81-2.441s-3.418-1.305-6.393-1.945c-1.202-.251-1.963-.521-2.284-.812-.33-.28-.496-.596-.496-.946 0-.481.2-.889.601-1.225.4-.336.997-.504 1.788-.504.961 0 1.715.226 2.261.677.546.45.904 1.172 1.074 2.163l6.416-.375c-.281-2.284-1.16-3.949-2.637-4.996-1.478-1.046-3.624-1.57-6.438-1.57-2.293 0-4.099.288-5.416.864s-2.304 1.367-2.96 2.374-.984 2.076-.984 3.207c0 1.724.641 3.141 1.923 4.252 1.272 1.112 3.4 2.004 6.385 2.675 1.823.4 2.985.826 3.486 1.277.5.45.751.961.751 1.532 0 .601-.263 1.129-.789 1.585s-1.275.684-2.246.684c-1.302 0-2.304-.445-3.005-1.337-.431-.551-.716-1.353-.856-2.404l-6.475.405c.19 2.224 1.006 4.057 2.449 5.499 1.442 1.442 4.036 2.164 7.783 2.164 2.133 0 3.901-.309 5.303-.925 1.402-.615 2.494-1.52 3.275-2.711.781-1.192 1.172-2.494 1.172-3.906 0-1.203-.292-2.289-.878-3.261z"/><path d="m138.922 56.812c-.3 1.393-.784 2.454-1.45 3.186-.666.731-1.65 1.097-2.952 1.097-1.342 0-2.384-.453-3.125-1.358s-1.112-2.578-1.112-5.02c0-1.971.31-3.416.932-4.337.821-1.24 2.003-1.86 3.545-1.86.681 0 1.297.141 1.848.421s1.017.681 1.397 1.201c.23.311.451.802.661 1.473l6.01-1.337c-.772-2.323-1.951-4.047-3.538-5.168-1.588-1.122-3.769-1.684-6.543-1.684-3.546 0-6.288.979-8.226 2.936s-2.907 4.757-2.907 8.4c0 2.733.551 4.975 1.652 6.727 1.102 1.752 2.412 2.976 3.929 3.671 1.518.695 3.473 1.044 5.867 1.044 1.973 0 3.598-.286 4.876-.856 1.277-.571 2.346-1.418 3.207-2.539.861-1.122 1.492-2.52 1.893-4.192z"/><path d="m166.651 59.445c-.16-.321-.478-.777-.953-1.369-.476-.591-.838-.978-1.088-1.157-.371-.271-.961-.541-1.772-.813 1.012-.23 1.809-.521 2.39-.871.912-.551 1.629-1.27 2.15-2.156s.782-1.94.782-3.162c0-1.402-.341-2.592-1.021-3.568-.682-.977-1.578-1.646-2.69-2.006s-2.719-.541-4.823-.541h-11.343v22.025h6.836v-8.939h.601c.621 0 1.177.171 1.668.511.361.261.771.826 1.232 1.698l3.638 6.73h7.69zm-5.756-7.711c-.286.371-.654.602-1.104.691-.892.2-1.492.301-1.803.301h-2.87v-4.478h2.99c1.242 0 2.088.19 2.539.571.451.38.676.926.676 1.637 0 .482-.142.908-.428 1.278z"/><path d="m172.396 43.801h6.821v22.025h-6.821z"/><path d="m203.353 56.069c-.746-.927-1.911-1.58-3.493-1.961 1.042-.36 1.833-.852 2.374-1.473.812-.932 1.217-2.048 1.217-3.351 0-1.552-.568-2.854-1.705-3.906-1.137-1.051-2.767-1.577-4.89-1.577h-12.741v22.025h11.749c.501 0 1.518-.1 3.05-.301 1.152-.15 2.013-.391 2.584-.721.921-.531 1.647-1.252 2.179-2.164.531-.911.796-1.938.796-3.079 0-1.401-.374-2.566-1.12-3.492zm-12.372-7.806h3.005c1.031 0 1.755.181 2.171.541s.624.861.624 1.503c0 .69-.208 1.219-.624 1.585-.416.365-1.155.548-2.216.548h-2.959v-4.177zm5.949 12.207c-.48.416-1.307.624-2.479.624h-3.47v-4.462h3.456c1.192 0 2.025.197 2.501.593s.713.919.713 1.57c0 .702-.24 1.26-.721 1.675z"/><path d="m214.839 60.838v-4.341h10.592v-4.493h-10.592v-3.501h11.419v-4.702h-18.239v22.026h18.569v-4.989z"/></g><path d="m48.041 127.189c-.974 11.564-13.025 13.39-13.025 13.39 10.347.487 12.925 14.059 12.925 14.059.221-9.677 13.321-14.202 13.321-14.202-9.812-.588-13.221-13.247-13.221-13.247z" fill="#d5de58"/><path d="m61.353 138.938c-8.605-.515-11.832-12.024-11.863-12.141-.191-.703-.863-1.169-1.583-1.102-.725.066-1.298.642-1.359 1.367-.86 10.215-11.313 11.963-11.754 12.031-.763.116-1.313.791-1.273 1.561.04.771.657 1.385 1.427 1.421 9.028.426 11.499 12.719 11.522 12.843.137.712.759 1.218 1.472 1.218.042 0 .084-.002.126-.005.764-.064 1.357-.693 1.375-1.46.195-8.509 12.192-12.777 12.313-12.819.675-.234 1.092-.914.994-1.622-.1-.709-.684-1.25-1.397-1.292zm-13.566 10.346c-1.356-3.131-3.708-6.908-7.586-8.877 2.931-1.404 6.409-3.913 8.202-8.272 1.551 3.071 4.199 6.88 8.334 8.723-3.008 1.639-6.923 4.405-8.95 8.426z" fill="#3a312a"/><path d="m26.343 144.169c-.689 8.179-9.213 9.471-9.213 9.471 7.318.344 9.142 9.944 9.142 9.944.156-6.844 9.422-10.045 9.422-10.045-6.94-.415-9.351-9.37-9.351-9.37z" fill="#d5de58"/><path d="m35.784 152.042c-5.766-.345-7.972-8.186-7.994-8.265-.19-.702-.855-1.174-1.582-1.102-.726.065-1.299.643-1.36 1.368-.579 6.87-7.646 8.065-7.942 8.112-.763.116-1.313.791-1.273 1.561.04.771.657 1.385 1.427 1.421 6.036.284 7.724 8.645 7.739 8.727.135.712.759 1.22 1.472 1.22.042 0 .083-.002.125-.005.765-.063 1.358-.693 1.376-1.461.13-5.708 8.332-8.633 8.413-8.661.677-.234 1.094-.913.996-1.622s-.682-1.251-1.397-1.293zm-9.584 6.794c-.924-1.885-2.34-3.947-4.447-5.279 1.855-1.041 3.697-2.63 4.87-4.916 1.057 1.874 2.654 3.954 4.942 5.224-1.85 1.1-3.989 2.739-5.365 4.971z" fill="#3a312a"/><path d="m26.343 117.512c-.689 8.179-9.213 9.471-9.213 9.471 7.318.344 9.142 9.944 9.142 9.944.156-6.844 9.422-10.045 9.422-10.045-6.94-.416-9.351-9.37-9.351-9.37z" fill="#d5de58"/><path d="m35.785 125.385c-5.767-.346-7.973-8.187-7.994-8.266-.19-.702-.855-1.166-1.582-1.102-.726.065-1.299.643-1.36 1.368-.579 6.871-7.646 8.066-7.942 8.113-.763.116-1.313.791-1.273 1.561.04.771.657 1.385 1.427 1.421 6.036.284 7.724 8.645 7.739 8.727.135.712.759 1.22 1.472 1.22.042 0 .083-.002.125-.005.765-.063 1.358-.693 1.376-1.461.13-5.709 8.331-8.633 8.413-8.661.676-.233 1.094-.913.996-1.622-.099-.709-.683-1.25-1.397-1.293zm-9.585 6.794c-.924-1.886-2.34-3.947-4.447-5.279 1.856-1.041 3.697-2.63 4.871-4.917 1.057 1.874 2.655 3.955 4.942 5.225-1.851 1.1-3.99 2.738-5.366 4.971z" fill="#3a312a"/><path d="m174.661 122.626h-.12c-5.116 0-9.263 4.146-9.263 9.262v-6.335c0-5.116-4.146-9.263-9.263-9.263h-.12c-5.006 0-9.084 3.97-9.257 8.935-.004.102-.005 5.377-.006 6.127v-12.134c0-5.116-4.146-9.262-9.262-9.262h-.12c-5.116 0-9.262 4.146-9.262 9.262v10.542l-.009-.008v-39.431c0-5.116-4.146-9.262-9.262-9.262h-.12c-5.116 0-9.263 4.146-9.263 9.262v61.269c0 3.571-2.893 6.464-6.464 6.464h-21.057c-7.211 0-13.057 5.846-13.057 13.048 0 3.605 1.459 6.867 3.82 9.228 2.369 2.361 5.631 3.82 9.237 3.82h16.293c6.713 0 12.688 4.275 14.851 10.636l4.318 12.67c.386-.051.781-.077 1.185-.077h59.043c.18 0 .352.009.524.009l.695-2.739c3.374-13.271 5.108-26.903 5.193-40.595 0-.112.009-.215.009-.326v-31.839c-.001-5.117-4.147-9.263-9.263-9.263z" fill="#f5e1c5"/><path d="m174.661 121.127h-.12c-3.074 0-5.851 1.295-7.814 3.369-.533-5.44-5.133-9.705-10.71-9.705h-.12c-3.083 0-5.858 1.276-7.817 3.34-.546-5.426-5.14-9.675-10.708-9.675h-.121c-3.052 0-5.81 1.276-7.771 3.324v-21.46c0-5.934-4.828-10.762-10.762-10.762h-.12c-5.935 0-10.763 4.828-10.763 10.762v61.27c0 2.737-2.227 4.964-4.964 4.964h-21.058c-8.027 0-14.557 6.526-14.557 14.548 0 3.889 1.513 7.543 4.262 10.291 2.756 2.746 6.412 4.258 10.295 4.258h16.293c6.077 0 11.474 3.865 13.431 9.619l4.318 12.671c.209.614.785 1.017 1.419 1.017.066 0 .133-.004.2-.014.316-.042.648-.063.985-.063h59.043l.524.008c.686 0 1.285-.466 1.454-1.131l.695-2.738c3.39-13.335 5.153-27.114 5.24-40.964l.009-32.166c-.001-5.935-4.829-10.763-10.763-10.763zm7.762 42.072-.009.846c-.086 13.598-1.817 27.135-5.148 40.235l-.406 1.6h-58.402c-.046 0-.091 0-.137.001l-3.945-11.578c-2.37-6.97-8.909-11.652-16.27-11.652h-16.293c-3.084 0-5.988-1.201-8.176-3.381-2.18-2.18-3.381-5.081-3.381-8.168 0-6.367 5.185-11.548 11.557-11.548h21.057c4.391 0 7.964-3.572 7.964-7.964v-61.27c0-4.28 3.482-7.762 7.763-7.762h.12c4.28 0 7.762 3.481 7.762 7.762v39.431c0 .397.167.788.448 1.069.428.429 1.073.558 1.635.325.561-.232.926-.779.926-1.386v-10.541c0-4.28 3.482-7.763 7.762-7.763h.121c4.28 0 7.762 3.482 7.762 7.763v12.221c0 .828.671 1.5 1.5 1.5s1.5-.672 1.5-1.5v-.003c0-.189.002-5.906.005-6.159.146-4.197 3.554-7.486 7.758-7.486h.12c4.28 0 7.762 3.482 7.762 7.763v6.335c0 .828.671 1.5 1.5 1.5s1.5-.672 1.5-1.5c0-4.28 3.483-7.762 7.763-7.762h.12c4.28 0 7.763 3.481 7.763 7.762v31.31z" fill="#3a312a"/><path d="m177.499 207.375h-59.041c-5.382 0-9.745 4.363-9.745 9.745v12.835c0 5.265 4.268 9.533 9.533 9.533h59.464c5.265 0 9.533-4.268 9.533-9.533v-12.835c.001-5.382-4.362-9.745-9.744-9.745z" fill="#ef6d7a"/><path d="m177.499 205.875h-59.041c-6.2 0-11.245 5.045-11.245 11.245v12.835c0 6.084 4.95 11.033 11.033 11.033h13.014c.829 0 1.5-.672 1.5-1.5s-.671-1.5-1.5-1.5h-13.014c-4.43 0-8.033-3.604-8.033-8.033v-12.835c0-4.546 3.699-8.245 8.245-8.245h59.041c4.546 0 8.245 3.699 8.245 8.245v12.835c0 4.43-3.603 8.033-8.033 8.033h-32.722c-.829 0-1.5.672-1.5 1.5s.671 1.5 1.5 1.5h32.722c6.083 0 11.033-4.949 11.033-11.033v-12.835c0-6.2-5.044-11.245-11.245-11.245z" fill="#3a312a"/><ellipse cx="173.409" cy="223.489" fill="#87796f" rx="5.886" ry="5.886" transform="matrix(.987 -.16 .16 .987 -33.56 30.663)"/><path d="m173.409 216.103c-4.073 0-7.386 3.313-7.386 7.387 0 4.072 3.313 7.386 7.386 7.386s7.386-3.313 7.386-7.386c-.001-4.074-3.314-7.387-7.386-7.387zm0 11.772c-2.419 0-4.386-1.968-4.386-4.386 0-2.419 1.968-4.387 4.386-4.387s4.386 1.968 4.386 4.387c-.001 2.418-1.968 4.386-4.386 4.386z" fill="#3a312a"/><path d="m225.27 18.008h-18c7.02 0 12.73 5.71 12.73 12.73v13.06h6.26v4.71h-6.26v3.5h5.43v4.49h-5.43v4.34h6.59v4.99h-6.59v18.12c0 7.02-5.71 12.73-12.73 12.73h18c7.02 0 12.73-5.71 12.73-12.73v-53.21c0-7.02-5.71-12.73-12.73-12.73z" fill="#6da4bd"/></svg>