<svg xmlns="http://www.w3.org/2000/svg" height="512" viewBox="0 0 512.016 512.016" width="512" xmlns:v="https://vecta.io/nano"><path d="M372 136.008H45c-24.813 0-45 20.187-45 45v225c0 25.54 21.404 45 43.553 45H372c24.813 0 45-20.187 45-45v-225c0-24.813-20.187-45-45-45z" fill="#3de9f2"/><path d="M416.998 181.008v225c0 24.8-20.18 45-45 45h-163.5v-315h163.5c10.835 0 21.106 3.86 29.18 10.78l-.006.006c9.678 8.257 15.826 20.53 15.826 34.214z" fill="#00cef2"/><path d="M401.18 146.788L217.808 322.436a10 10 0 0 1-13.719.109L15.23 147.298A44.8 44.8 0 0 1 45 136.008h327c11.12 0 21.32 4.06 29.18 10.78z" fill="#70ffff"/><path d="M401.178 146.788l-183.37 175.65a9.99 9.99 0 0 1-9.31 2.49v-188.92h163.5a44.7 44.7 0 0 1 29.18 10.78z" fill="#3de9f2"/><path d="M402 303.402c-16.542 0-30-13.458-30-30v-5h60v5c0 16.542-13.458 30-30 30z" fill="#f23900"/><path d="m431.998 268.398v5c0 16.55-13.46 30-30 30v-35z" fill="#e20016"/><path d="M510.416 249.3L482 192.467v-51.46c0-44.112-35.888-80-80-80s-80 35.888-80 80v51.46L293.584 249.3c-4.978 9.954 2.27 21.708 13.416 21.708h190c11.13 0 18.402-11.74 13.416-21.708z" fill="#ff9100"/><path d="M496.998 271.008h-95v-210c44.1 0 80 35.9 80 80v51.46l28.42 56.83c4.98 9.97-2.3 21.7-13.42 21.7z" fill="#f50"/></svg>