<svg xmlns="http://www.w3.org/2000/svg" xmlns:v="https://vecta.io/nano" xmlns:xlink="http://www.w3.org/1999/xlink" viewBox="0 0 24 24"><use fill="#303c42" xlink:href="#E"/><path fill="#5c6671" d="M14.166 21.998L12 22l-2.167-.002C5.804 21.998 1 20.38 1 12.67c0-1.938.555-3.49 1.748-4.886.116-.135.147-.332.088-.5-.116-.333-.16-2.742.652-5.205.765.193 2.608.808 5.065 2.624a.5.5 0 0 0 .44.077c.63-.188 1.754-.3 3.007-.3s2.378.112 3.006.3a.5.5 0 0 0 .44-.077c2.456-1.815 4.3-2.43 5.064-2.623.813 2.463.77 4.872.653 5.205a.5.5 0 0 0 .088.501C22.444 9.18 23 10.73 23 12.67c0 7.7-4.804 9.33-8.834 9.33z"/><path fill="#fff" d="M1.75 13.42c0-1.938.555-3.49 1.748-4.886.116-.135.147-.332.088-.5-.116-.333-.16-2.742.652-5.205.765.193 2.608.808 5.065 2.624a.5.5 0 0 0 .44.077c.63-.188 1.753-.3 3.007-.3s2.378.112 3.006.3a.5.5 0 0 0 .44-.077c2.04-1.507 3.646-2.18 4.574-2.48l-.26-.894c-.765.193-2.608.808-5.064 2.623-.128.093-.29.122-.44.077-.628-.188-1.752-.3-3.006-.3s-2.377.112-3.007.3a.5.5 0 0 1-.44-.077c-2.457-1.815-4.3-2.43-5.065-2.624-.813 2.464-.768 4.873-.652 5.207a.52.52 0 0 1-.088.5C1.555 9.18 1 10.73 1 12.67c0 3.762 1.148 6.067 2.787 7.448-1.226-1.42-2.037-3.544-2.037-6.698z" opacity=".2"/><path fill="#303c42" d="M14.318 10.103l-2.282.117h-.07c-.785 0-1.546-.06-2.282-.117-2.02-.157-3.925-.306-5.22 1.006C3.492 12.095 3 13.325 3 14.762 3 20.518 7.43 21 12.036 21 16.57 21 21 20.518 21 14.762c0-1.438-.492-2.667-1.463-3.654-1.294-1.31-3.2-1.163-5.22-1.005z"/><path fill="#d9cfcc" d="M11.964 20C6.8 20 4 19.165 4 14.762c0-1.166.396-2.16 1.175-2.952.63-.64 1.5-.812 2.566-.812.567 0 1.19.05 1.863.1l2.375.12c.875.02 1.655-.06 2.417-.12 1.935-.15 3.46-.27 4.428.7.78.794 1.176 1.787 1.176 2.953C20 19.165 17.2 20 11.964 20z"/><path d="M5.175 12.56c.63-.64 1.5-.812 2.566-.812.567 0 1.19.05 1.863.1l2.375.12c.875.02 1.655-.06 2.417-.12 1.935-.15 3.46-.27 4.428.7.724.736 1.102 1.652 1.155 2.71l.02-.508c0-1.166-.396-2.16-1.176-2.952-.967-.98-2.493-.86-4.428-.7l-2.417.12-2.375-.12L7.74 11c-1.065 0-1.935.17-2.566.812-.78.792-1.175 1.785-1.175 2.95l.02.51c.053-1.06.43-1.975 1.154-2.71z" opacity=".1"/><path fill="#303c42" d="M8,12c-1.14,0-2,1.505-2,3.5S6.86,19,8,19s2-1.505,2-3.5S9.14,12,8,12z"/><path fill="#6d4c41" d="M8 18c-.408 0-1-.974-1-2.5S7.592 13 8 13s1 .974 1 2.5S8.408 18 8 18z"/><path fill="#303c42" d="M16 12c-1.14 0-2 1.505-2 3.5s.86 3.5 2 3.5 2-1.505 2-3.5-.86-3.5-2-3.5z"/><path fill="#6d4c41" d="M16 18c-.408 0-1-.974-1-2.5s.592-2.5 1-2.5 1 .974 1 2.5-.592 2.5-1 2.5z"/><g fill="#a1887f"><circle cx="7.909" cy="14.482" r=".446"/><circle cx="15.909" cy="14.482" r=".446"/></g><linearGradient id="A" x1="10.768" x2="18.633" y1="13.86" y2="21.724" gradientUnits="userSpaceOnUse"><stop offset="0" stop-opacity=".1"/><stop offset="1" stop-opacity="0"/></linearGradient><path fill="url(#A)" d="M20 11.65l-.017.007c.663.884 1.017 1.92 1.017 3.105C21 20.518 16.57 21 12.036 21c-2.666 0-5.266-.17-6.99-1.42l2.142 2.142c.88.193 1.78.275 2.644.275L12 22l2.166-.002c3.68 0 7.99-1.365 8.716-7.466L20 11.65z"/><linearGradient id="B" x1="4.004" x2="4.047" y1="18.529" y2="18.573" gradientUnits="userSpaceOnUse"><stop offset="0" stop-opacity=".1"/><stop offset="1" stop-opacity="0"/></linearGradient><path fill="url(#B)" d="M4.01 18.528l-.01.005.043.043-.032-.048z"/><linearGradient id="C" x1=".617" x2="23.69" y1="5.771" y2="16.53" gradientUnits="userSpaceOnUse"><stop offset="0" stop-color="#fff" stop-opacity=".2"/><stop offset="1" stop-color="#fff" stop-opacity="0"/></linearGradient><use fill="url(#C)" xlink:href="#E"/><defs><path id="E" d="M22.17 7.326c.148-.988.048-3.528-.864-6-.08-.216-.3-.35-.528-.323-.096.01-2.35.302-5.733 2.75C14.31 3.578 13.22 3.48 12 3.48s-2.3.1-3.047.276c-3.385-2.45-5.638-2.74-5.734-2.75-.226-.025-.448.107-.528.323-.912 2.47-1.01 5.01-.863 6C.6 8.846 0 10.597 0 12.67c0 6.66 3.492 10.33 9.833 10.33L12 23l2.166-.002c6.34 0 9.834-3.668 9.834-10.33 0-2.072-.6-3.823-1.83-5.343z"/></defs></svg>