<svg xmlns="http://www.w3.org/2000/svg" viewBox="0 0 512 512" xmlns:v="https://vecta.io/nano"><path fill="#fedb41" d="M335.28,112.28a20.4,20.4,0,1,1,0,40.8H176.72a20.4,20.4,0,1,1,0-40.8Z"/><path fill="#00acea" d="M330.18 153.08v269a74.18 74.18 0 1 1-148.36 0v-269z"/><path fill="#fedb41" d="M307.24 15.74a13.73 13.73 0 1 1-13.73 13.73 13.725 13.725 0 0 1 13.73-13.73z"/><path fill="#00efd1" d="M303,331v91.07c0,25.57-21.43,46.37-47,46.37s-47-20.8-47-46.37V331Z"/><g fill="#fedb41"><path d="M276.4 195.7a16.7 16.7 0 1 1-16.69 16.7 16.7 16.7 0 0 1 16.69-16.7z"/><circle cx="257.66" cy="64.93" r="21.33"/><circle cx="234.21" cy="279.59" r="19.01"/><circle cx="222.85" cy="192.05" r="13.73"/><circle cx="196.44" cy="51.57" r="16.69"/></g></svg>