<svg xmlns="http://www.w3.org/2000/svg" xmlns:xlink="http://www.w3.org/1999/xlink" width="140" height="140" xmlns:v="https://vecta.io/nano"><g fill="#187fb8"><use xlink:href="#B"/><use xlink:href="#B"/></g><use xlink:href="#B" fill="#0e78d8"/><use xlink:href="#C" fill="#187fb8"/><use xlink:href="#C" fill="#0e78d8"/><use xlink:href="#D" fill="#2ed3ff"/><path d="M7.74 26.753c0 7.453 5.696 13.33 14.48 13.33h.178c9.123 0 14.802-5.9 14.802-13.348" fill="#00a4dd"/><g fill="none" stroke="#33363a" stroke-linejoin="round" stroke-miterlimit="10" stroke-width="3"><use xlink:href="#B"/><use xlink:href="#B"/><use xlink:href="#B"/><use xlink:href="#C"/><use xlink:href="#C"/><use xlink:href="#D"/><path d="M91.118 26.332l-.005-3.45m.005-7.5l-.005.16M64.395 31.838l-2.44-2.438m-5.31-5.305l.12.116m61.07 7.63l2.44-2.443m5.303-5.302l-.114.113" stroke-linecap="round"/></g><defs ><path id="B" d="M10.886 49.7h24.268v76.897H10.886z"/><path id="C" d="M101.462 48.967c-13.907 0-22.614 7.525-24.226 12.804V49.7H49.97c.354 6.408 0 76.897 0 76.897h27.268V84.986c0-2.3-.1-4.622.59-6.284 1.876-4.624 5.9-9.418 13.144-9.418 9.467 0 13.773 7.108 13.773 17.52v39.792h27.517V83.842c-.001-23.818-13.55-34.875-30.798-34.875z"/><path id="D" d="M22.568 13.402c-8.966 0-14.827 5.756-14.827 13.35 0 7.453 5.696 13.33 14.48 13.33h.178c9.123 0 14.802-5.9 14.802-13.348-.174-7.6-5.68-13.332-14.633-13.332z"/></defs></svg>