<svg xmlns="http://www.w3.org/2000/svg" width="16" height="16" xmlns:v="https://vecta.io/nano"><path d="M8 1.5a5.5 5.5 0 0 0-5.081 3.388c-.85 2.052-.38 4.413 1.193 5.983l3.456 3.453a.61.61 0 0 0 .864 0l3.456-3.453c1.573-1.57 2.043-3.932 1.19-5.983a5.5 5.5 0 0 0-5.081-3.388zm.018 3.008c1.385 0 2.508 1.12 2.508 2.505a2.51 2.51 0 0 1-2.508 2.507c-1.385 0-2.506-1.123-2.506-2.507S6.632 4.51 8.017 4.51z" fill="#e65050"/><path d="M8 1c-2.425 0-4.615 1.462-5.543 3.7s-.414 4.817 1.3 6.53l3.457 3.45a1.12 1.12 0 0 0 1.57 0l3.457-3.45a.5.5 0 0 0 .09-.121c1.63-1.71 2.12-4.218 1.21-6.408C12.615 2.46 10.425 1 8 1zM8 2c2.024 0 3.845 1.214 4.62 3.08a4.98 4.98 0 0 1-1.084 5.438l-3.457 3.45c-.05.05-.107.05-.156 0l-3.457-3.45a4.98 4.98 0 0 1-1.084-5.437C4.155 3.216 5.976 2 8 2z"/><path d="M8.018 4.01C6.362 4.01 5 5.36 5 7.015s1.353 3.008 3.008 3.008 3.008-1.353 3.008-3.008S9.673 4.01 8.018 4.01zm0 1a2 2 0 0 1 2.006 2.006 2 2 0 0 1-2.006 2.006 2 2 0 0 1-2.006-2.006 2 2 0 0 1 2.006-2.006z"/></svg>