<svg xmlns="http://www.w3.org/2000/svg" version="1.0" viewBox="0 0 400 400">
  <defs/>
  <g fill="#00a1f1">
    <path d="M97 226.3333c-10.7333-.2-10.8667-.2-13.6667-1.1333C70.6666 221 60.7 211.9 55.7666 200.0667c-5.7333-13.9-3.9-29.9 4.8667-42.4 2.0333-2.9 6.6333-7.4333 9.7-9.5333 7.3-5 16.0333-7.8 24.7667-7.8667 3.9333-.0333 3.9333-.0333 3.6667-2.2333-.5-4.1667-.2667-10.9333.5333-14.1333 1.5333-6.3667 4.1667-11.3 8.3-15.6 3.8667-4.1 7.8-6.5667 13.0333-8.3 11.4-3.7 24.0333-.6 33.8 8.3333 1.9 1.7333 1.9 1.7333 2.3.6333.2-.6 1.1667-2.6667 2.1-4.6 14.2333-29 48.5333-40.8333 77.3333-26.7333 18.6 9.1333 30.8667 26.9 33.2 48.0667.3667 3.2667.2333 12.0333-.2333 14.4667-.2 1-.2 1 5.9333 1 5.1333 0 6.6667.1333 9.5667.7667 5.8667 1.3333 11.2 3.4667 15.6333 6.3 1 .6333 1.9 1.1 2.0667 1.0333.1333-.0667 3.1333-3.5 6.6333-7.6667s6.7-7.7667 7.1-7.9667c.6667-.3667 1.1333.0333 5.8667 4.9 5.6333 5.8333 6.1667 6.4667 5.9 7.2-.1.2667-3.5667 3.4-7.6667 6.9667-4.1333 3.5667-7.5 6.6-7.5 6.7333 0 .1667.4333.9.9333 1.6667 8.7667 12.9333 9.2 30.4 1.1667 43.9667-6.3333 10.6667-17.3667 18.2667-30.3333 20.9-3.3667.7-3.6667.7-90 .6333-47.6333-.0333-91.4667-.1667-97.4333-.2667zm174.5667-34.9667c.1-.3667 4.9-2.7 14.0333-6.8667 7.6333-3.4667 15-6.8 16.3667-7.4333 2.4667-1.1333 2.4667-1.1333.9333-2.6667-2.0667-2.1667-2.6667-3.5-2.6667-5.9 0-2.3333.8-4.4333 2.4333-6.2667 1.0667-1.2333 1.0667-1.2333 2.5333.1.8.7333 1.5333 1.3333 1.6 1.3333.7333 0 1.9333-.8333 2.3333-1.6.5-.9667.5-1-1.2-2.9333-1.8667-2.1667-5-5-7.2-6.5333-1.6667-1.1333-2.5333-1.0333-3.0333.4333-.4333 1.2333-.2333 1.8333 1.2 3.3333 1.1333 1.2 1.1333 1.2.0333 2.1333-2.8 2.3667-7.3 3.0667-10.1333 1.5667-1.3333-.6667-3.1333-2.4667-3.1333-3.1 0-1.1667-1.3333 1.6-7.8333 16.2-5.6667 12.7667-7.4667 16.5-7.9333 16.5-.3 0-.7667.4-.9667.8667-.3667.7667-.3333.9667.3667 1.5.6.5.9.5333 1.4333.2667.3667-.2.7333-.6333.8333-.9333z"/>
    <path d="M271.6667 189.5333c.2667-.3667 3.7333-4.1 7.7-8.3333 6.6667-7.0667 7.2-7.7333 6.9333-8.5-.7333-1.8667.6333-3.9 2.8-4.2667 1.0667-.1667 1.3667-.0333 2.4 1 1.3 1.3 1.4667 2.3333.6667 3.8667-.7333 1.4667-2.4667 1.9667-4.3667 1.3333-.2333-.0667-4.0333 3.4-8.5 7.7-4.4667 4.3-7.9 7.5333-7.6333 7.2z"/>
  </g>
  <path fill="#fe9b1c" d="M97 226.3333c-10.7333-.2-10.8667-.2-13.6667-1.1333C70.6666 221 60.7 211.9 55.7666 200.0667c-5.7333-13.9-3.9-29.9 4.8667-42.4 2.0333-2.9 6.6333-7.4333 9.7-9.5333 7.3-5 16.0333-7.8 24.7667-7.8667 3.9333-.0333 3.9333-.0333 3.6667-2.2333-.5-4.1667-.2667-10.9333.5333-14.1333 1.5333-6.3667 4.1667-11.3 8.3-15.6 3.8667-4.1 7.8-6.5667 13.0333-8.3 11.4-3.7 24.0333-.6 33.8 8.3333 1.9 1.7333 1.9 1.7333 2.3.6333.2-.6 1.1667-2.6667 2.1-4.6 14.2333-29 48.5333-40.8333 77.3333-26.7333 18.6 9.1333 30.8667 26.9 33.2 48.0667.3667 3.2667.2333 12.0333-.2333 14.4667-.2 1-.2 1 5.9333 1 5.1333 0 6.6667.1333 9.5667.7667 5.8667 1.3333 11.2 3.4667 15.6333 6.3 1 .6333 1.9 1.1 2.0667 1.0333.1333-.0667 3.1333-3.5 6.6333-7.6667s6.7-7.7667 7.1-7.9667c.6667-.3667 1.1333.0333 5.8667 4.9 5.6333 5.8333 6.1667 6.4667 5.9 7.2-.1.2667-3.5667 3.4-7.6667 6.9667-4.1333 3.5667-7.5 6.6-7.5 6.7333 0 .1667.4333.9.9333 1.6667 8.7667 12.9333 9.2 30.4 1.1667 43.9667-6.3333 10.6667-17.3667 18.2667-30.3333 20.9-3.3667.7-3.6667.7-90 .6333-47.6333-.0333-91.4667-.1667-97.4333-.2667zM284.0667 222.5c8.8333-1.8333 16.4333-6 22.5333-12.3 3.4667-3.5667 5.2333-6.1 7.2333-10.3 3-6.2667 4.2333-12.8667 3.5667-19.1667-1.7333-16.4333-13.7667-30.0667-30.5-34.5333-5.2-1.4-7.7667-1.6667-14.4-1.4333-5.1.1667-6.2.1-6.5333-.3-.3-.3667-.2667-1.3333.1667-4.4C270.1667 111.4 251.9667 84 224.2667 77c-5.6-1.4-9.5333-1.8-15.7333-1.5667-14.1667.5333-26.1667 5.8-36.4 16.0333-6.1333 6.1667-10.2333 12.5-13.1 20.3667-.5333 1.5-1.2667 2.8333-1.6333 3.1-.6667.4333-.9667.2333-4.5-3.1667-3.9667-3.7667-7.2-5.9333-11.2667-7.5667-12.1667-4.7667-25.4667-1.4333-33.5333 8.4667-2.2333 2.7333-4.8667 8-5.8333 11.6667-1 3.8333-1.0667 10.7667-.1 15.2667.4667 2.2667.5333 3.2667.2667 3.6667-.3.5-1.2333.6-6.8.7667-4.3.1333-7.2333.3667-8.8.7667-8.1333 1.9333-14.5 5.4667-20.0333 11.0333-5.7667 5.8333-9.2667 12.8-10.6667 21.1333-.8 4.9-.5 12.3667.6333 16.3667 2.0333 7.0667 5 12.3333 9.8333 17.4 5.4 5.6333 12.1 9.5667 19.9 11.6 2.2333.6 6.0667.6333 98.7333.6333 85 .0333 96.6667-.0333 98.8333-.4667z"/>
</svg>