<svg xmlns="http://www.w3.org/2000/svg" viewBox="0 0 50 50" xmlns:v="https://vecta.io/nano"><path fill="#f34b43" d="M30.034 8.886c3.316-2.33 8.463-2.007 10.863 1.075 1.246 1.6 1.6 3.722 1.722 5.756.067 1.215.01 1.828-1.114 3.7-1.32 2.2-4.93 4.61-8.633 3.754-2.122-.5-4.093-1.77-5.293-3.624-1.86-2.873-.946-8.27 2.455-10.663z"/><path fill="#f8dfb4" d="M8.346 31.055c.987-.722.83-.903 1.817-1.625.344-.252.698-.514.913-.884.273-.472.28-1.05.28-1.598.001-2.684 2.255-6.7 2.256-9.384.001-1.63-.166-3.288 1.193-4.16 1.445-.926 2.612.322 3.2 1.954.97 2.65-.375 5.34-.383 8.127 2.7-3.17 10.03-8.8 11.148-9.442 1.03-.582 3.314-1.944 4.4-1.425.82.395 1.283 1.35 1.257 2.257s-3.836 3.913-4.576 4.422c-1.893 1.303-3.41 3.12-5.302 4.424 3.733-1.07 4.738 1.47 2.455 3.46 3.66-.246 4.478 1.532 2.712 3.814 3.3-1.117 5.24 1.75 1.87 4.305-3.1 2.743-5.85 5.457-8.398 5.64-2.276.164-2.32-1.408-6.088 1.24L8.346 31.055z"/><path fill="#bfd351" d="M19.06 42.077c.083.14-6.848 6.056-7.655 6.42-1.116-.858-9.815-13.09-9.907-13.016 3.143-2.61 4.4-4.12 7.47-6.816 1.73 1.808 3.464 3.62 5.002 5.595 1.912 2.455 3.503 5.14 5.09 7.817z"/><path fill="#fff" d="M13.633 40.985a1.32 1.32 0 0 1 .368.231c.398.342.637.863.633 1.385a1.75 1.75 0 0 1-.663 1.35 1.18 1.18 0 0 1-.416.216c-.844.224-1.762-.652-2.048-1.385-.273-.702.268-1.257.83-1.592.38-.226.858-.38 1.294-.205z"/><path d="M45.877 5.702c-2.325-2.986-6.175-4.7-10.56-4.7-10.42 0-16.45 9.14-14.756 17.8a12.66 12.66 0 0 0 .217.916 55.29 55.29 0 0 0-2.54 2.375c.3-2.27 1.102-4.576.25-6.908-.83-2.266-2.44-3.17-3.95-2.204-1.54.988-1.44 2.78-1.423 4.58 0 1.26-.56 2.924-1.102 4.533-2.065 6.14-.406 5.65-2.066 6.87-1.7-1.77-.193-1-8.766 6.13a.5.5 0 0 0-.003.767c.2.242 1.336 1.778 2.526 3.402 3.622 4.94 6.677 9.075 7.397 9.628a.5.5 0 0 0 .51.059c.438-.198 7.712-6.043 7.926-6.717.087-.275-.062-.437-.257-.767 1.818-.824 2 .124 3.948-.03 2.444-.175 4.885-2.36 7.7-4.887.636-.7 3.562-2.43 2.8-4.698-.364-1.082-1.536-1.7-2.968-1.6a3.38 3.38 0 0 0 .305-1c.978.293 2.16.43 3.2.43 7.413 0 13.965-6.3 14.656-11.72.27-2.1-.23-8.638-3.06-12.273zM11.473 47.87c-1.102-1.2-4.716-6.13-6.95-9.178l-2.33-3.14c2.774-2.337 4.056-3.804 6.748-6.196 1.6 1.662 3.213 3.38 4.637 5.2 1.82 2.338 3.373 4.93 4.867 7.45-1.063 1.022-5.676 4.946-6.97 5.852zm21.314-15.696c.506 1.504-1.936 2.988-2.518 3.634-2.577 2.306-5 4.483-7.115 4.635-1.658.115-2.2-.864-4.4.164-1.35-2.26-2.76-4.547-4.4-6.654-1.16-1.5-2.438-2.895-3.723-4.256 1.938-1.458.368-1.5 2.318-7.282 1.58-4.693 1.05-4.714 1.15-5.343-.014-1.402-.025-2.612.966-3.248.245-.157.48-.237.702-.237.78 0 1.424 1.003 1.768 1.942.565 1.542.275 3.13-.032 4.8-.53 2.9-.506 3.445-.054 3.612a.5.5 0 0 0 .554-.145c2.682-3.15 9.923-8.715 11.013-9.33l.175-.1c.756-.43 2.952-1.694 3.752-1.3.596.288.997 1.024.976 1.776-.206 1.017-4.848 4.265-7.066 6.296-.825.756-1.68 1.537-2.597 2.17a.5.5 0 0 0-.168.625c.105.222.354.337.6.267 1.516-.434 2.708-.226 2.97.478.218.58-.167 1.416-.982 2.126a.5.5 0 0 0 .362.876c2.822-.195 3.986.808 2.282 3a.5.5 0 0 0 .555.78c1.37-.46 2.628-.134 2.9.704zM24.1 14.977C24.867 4.46 37.984 1.9 42.9 8.2c1.786 2.295 2.153 5.477 2.274 7.67s-.8 4.424-2.56 6.293c-3.517 3.716-9.313 5.087-14.185 1.855-.246-.406-.632-.707-1.144-.878a9.8 9.8 0 0 1-.555-.54l1.57-1.407c1.695 1.7 4.047 2.647 6.142 2.647 4.493 0 8.914-3.975 8.684-8.16-.093-1.704-.384-4.184-1.826-6.036C39.9 7.88 37.626 6.86 35.027 6.86c-5.052 0-8.573 3.606-8.87 8.455L24.16 16.88c-.072-.65-.106-1.292-.062-1.903zM32.593 12c-1.235 0-2.895.944-3.886 1.508l-.172.098c-.214.12-.67.437-1.27.878.695-4.166 3.813-6.624 7.763-6.624 4.913 0 6.836 3.2 7.093 7.885.295 5.37-7.673 10.045-13.048 4.8.903-.75 5.814-4.206 5.856-5.648.043-1.484-.992-2.888-2.335-2.888zm15.353 5.848c-.64 5.016-6.748 10.846-13.664 10.846-1.325 0-2.26-.195-3.3-.482-.42-1.113-1.648-1.47-2.833-1.54a3.11 3.11 0 0 0 .544-1.33c1.622.896 3.642 1.542 5.622 1.542 3.22 0 6.68-1.54 9.028-4.022 1.96-2.07 2.966-4.57 2.83-7.036-.127-2.328-.524-5.714-2.483-8.23-5.427-6.97-19.736-4.214-20.578 7.308a11.67 11.67 0 0 0 .13 2.731l-1.6 1.342c-.027-.12-.067-.253-.1-.366-1.63-8.33 4.23-16.608 13.775-16.608 4.076 0 7.638 1.572 9.772 4.313 2.612 3.355 3.103 9.6 2.857 11.532zM12.083 40.76c-.966.574-1.355 1.397-1.042 2.203.332.855 1.26 1.74 2.237 1.74a1.59 1.59 0 0 0 .403-.052c.205-.054.405-.156.595-.305a2.24 2.24 0 0 0 .857-1.741c.006-.67-.296-1.33-.807-1.77-.163-.14-.334-.246-.5-.315-.517-.207-1.126-.12-1.735.24zm1.592.835a1.34 1.34 0 0 1 .459 1.001 1.25 1.25 0 0 1-.471.96.68.68 0 0 1-.236.127c-.5.14-1.23-.5-1.454-1.083-.16-.4.25-.76.62-.98.23-.138.452-.2.637-.2a.58.58 0 0 1 .217.04c.072.03.148.078.228.146z" fill="#353535"/></svg>