<svg xmlns="http://www.w3.org/2000/svg" xmlns:v="https://vecta.io/nano" width="36" height="36" fill="#fff"><circle cx="18" cy="18" r="18" fill="#ffa40b" fill-rule="evenodd"/><path fill="#ff7712" d="M19.961 35.871l1.098-.133 1.756-.395 1.707-.566 1.643-.736 1.561-.895a18 18 0 0 0 1.465-1.047l1.352-1.188 1.227-1.316a18 18 0 0 0 1.088-1.432l.941-1.535a18 18 0 0 0 1.398-3.309 18 18 0 0 0 .445-1.744l.082-.541-8.527-8.527a.5.5 0 0 0-.496-.496L17.6 12l-9.1.021a.5.5 0 0 0-.283.088l-.039.025a.5.5 0 0 0-.035.035.5.5 0 0 0-.063.078l-.025.043a.5.5 0 0 0-.047.143l-.006.049-.002.039V23.91a.5.5 0 0 0 .5.5l11.461 11.461z"/><path d="M17.6 12l-9.1.021a.5.5 0 0 0-.283.088l-.039.029a.5.5 0 0 0-.035.035.5.5 0 0 0-.062.078l-.025.043a.5.5 0 0 0-.047.143l-.006.049-.002.035V23.91a.5.5 0 0 0 .5.5h12.596l-.164.875a.53.53 0 0 0 .762.57l2.73-1.389 2.691 1.469a.53.53 0 0 0 .779-.549l-.475-3.033 2.227-2.107a.53.53 0 0 0-.279-.91l-2.176-.35v-6.4a.5.5 0 0 0-.492-.574L17.6 12zm-7.355 1.021h14.697L17.6 17.615l-7.355-4.594zm15.947.396v5.115l-1.168-2.457a.53.53 0 0 0-.949-.014l-1.396 2.732-3.039.396a.53.53 0 0 0-.307.898l2.162 2.178-.213 1.143H9v-9.988l8.336 5.207a.5.5 0 0 0 .529 0l8.326-5.211zm-1.664 4.08v.004l.975 2.055a.53.53 0 0 0 .395.297l2.238.359-1.645 1.561a.53.53 0 0 0-.16.471l.352 2.246-1.992-1.09a.53.53 0 0 0-.496-.01l-2.021 1.025.416-2.232a.53.53 0 0 0-.146-.471L20.838 20.1l2.252-.291a.53.53 0 0 0 .404-.285l1.033-2.025z"/></svg>