<svg xmlns="http://www.w3.org/2000/svg" viewBox="0 0 36 36"><g transform="translate(0 -1016.4)"><rect width="36" height="36" y="1016.4" fill="#f8b84e" rx="6" ry="6"/><g><path d="M-335.5 361c-4.13622 0-7.49999 3.3638-7.5 7.5 0 1.71609.58559 3.2935 1.55859 4.55859.0159.034.0355.0661.0586.0957.0257.0324.0559.0599.082.0918.053.0646.11096.1247.16601.1875.20177.2301.41668.4447.64258.64649.0821.0736.16078.15077.2461.2207.0958.0783.19563.1494.29492.22266.11573.0857.23087.17089.35156.25.0976.0637.19845.12067.29883.17968.1276.0754.25638.14887.38867.2168.0987.0504.19801.0985.29883.14453.15336.0703.31006.13328.46875.19336.0793.0299.15789.0607.23828.0879.18935.0644.38236.11868.57813.16797.0659.0166.13079.036.19726.0508.21519.0479.43458.0843.65625.11328.0478.006.0946.0181.14258.0234.27358.0304.55047.0488.83203.0488.28839 0 .57156-.0209.85156-.0527.27376-.0311.54256-.0788.80664-.13868.0308-.007.0611-.016.0918-.0234.2489-.0598.49186-.13282.73047-.2168.005-.002.0106-.002.0156-.004.008-.003.0155-.007.0234-.01.23928-.0857.47183-.1843.69922-.29297.0318-.0152.0641-.0292.0957-.0449.23779-.11779.46866-.24722.69141-.38868 2.09631-1.33123 3.49413-3.66572 3.49414-6.32812-.00001-4.1362-3.36378-7.5-7.5-7.5zm0 1c3.59578 0 6.5 2.9043 6.5 6.5 0 1.25031-.35755 2.41229-.9668 3.40234-.0902-.095-.18904-.18986-.3164-.26953-.007-.005-.0142-.009-.0215-.0137-1.07357-.6001-1.97223-1.06182-2.62109-1.38672-.32443-.1625-.58764-.29031-.77539-.38281-.0765-.038-.0625-.0315-.11719-.0605.38737-.4092.68555-.90349.68555-1.52929l0-1.86133c0-1.322-1.07928-2.40235-2.40039-2.40235l0 .006c-.13423-.0005-.26303.053-.35742.14844l-.002 0c-1.12635.1965-2.03906 1.07075-2.03906 2.25195l0 1.86133c0 .6406.31452 1.14054.7168 1.55274-.2004.1-1.72985.85737-3.27539 1.70117-.21843.11087-.39419.2525-.54102.38672C-341.64136 370.91375-342 369.75127-342 368.5c0-3.5957 2.90422-6.5 6.5-6.5zM-352.5 344c-4.13622 0-7.49999 3.3638-7.5 7.5 0 1.71609.58559 3.2935 1.55859 4.55859.0159.034.0355.0661.0586.0957.0257.0324.0559.0599.082.0918.053.0646.11096.1247.16601.1875.20177.2301.41668.4447.64258.64649.0821.0736.16078.15077.2461.2207.0958.0783.19563.1494.29492.22266.11573.0857.23087.17089.35156.25.0976.0637.19845.12067.29883.17968.1276.0754.25638.14887.38867.2168.0987.0504.19801.0985.29883.14453.15336.0703.31006.13328.46875.19336.0793.0299.15789.0607.23828.0879.18935.0644.38236.11868.57813.16797.0659.0166.13079.036.19726.0508.21519.0479.43458.0843.65625.11328.0478.006.0946.0181.14258.0234.27358.0304.55047.0488.83203.0488.28839 0 .57156-.0209.85156-.0527.27376-.0311.54256-.0788.80664-.13868.0308-.007.0611-.016.0918-.0234.2489-.0598.49186-.13282.73047-.2168.005-.002.0106-.002.0156-.004.008-.003.0155-.007.0234-.01.23928-.0857.47183-.1843.69922-.29297.0318-.0152.0641-.0292.0957-.0449.23779-.11779.46866-.24722.69141-.38868 2.09631-1.33123 3.49413-3.66572 3.49414-6.32812-.00001-4.1362-3.36378-7.5-7.5-7.5zm0 1c3.59578 0 6.5 2.9043 6.5 6.5 0 1.25127-.35864 2.41375-.96875 3.4043-.09-.0947-.18754-.19015-.31445-.26953-.007-.005-.0142-.009-.0215-.0137-1.07357-.6001-1.97223-1.06181-2.62109-1.38671-.32443-.1625-.58764-.29032-.77539-.38282-.0765-.038-.0625-.0315-.11719-.0605.38737-.4092.68555-.9035.68555-1.5293l0-1.86133c0-1.322-1.07928-2.40234-2.40039-2.40234l0 .004c-.13423-.0005-.26303.053-.35742.14844l-.002 0c-1.12635.1965-2.03906 1.07075-2.03906 2.25195l0 1.86133c0 .6406.31452 1.14054.7168 1.55274-.2004.1-1.72985.85737-3.27539 1.70117-.21843.11087-.39419.2525-.54102.38672C-358.64136 353.91375-359 352.75127-359 351.5c0-3.5957 2.90422-6.5 6.5-6.5z" font-family="sans-serif" font-weight="400" opacity=".15" overflow="visible" transform="translate(361.5 -346) translate(0 1020.4)" white-space="normal" style="block-progression:tb;isolation:auto;mix-blend-mode:normal;text-decoration-color:#000;text-decoration-line:none;text-decoration-style:solid;text-indent:0;text-transform:none"/><g stroke-linejoin="round" transform="translate(361.5 -346) translate(-306 309)"><path fill="#60c5b8" stroke="#25b39e" stroke-linecap="round" d="m-28.533 1075.9c-1.0523 0-1.8984 0.8486-1.8984 1.9023v1.8614c0 0.783 0.59795 1.4517 1.2402 1.7441 0.0404 0.016 0.08124 0.03 0.12305 0.045 0.03588 0.014 0.07158 0.026 0.10742 0.037 0.12983 0.04 0.26953 0.071 0.43555 0.076h-0.0078c-0.1374 0-0.28165-0.031-0.42774-0.076-0.03728-0.011-0.07181-0.024-0.10742-0.037-0.0411-0.015-0.08216-0.026-0.12305-0.045-0.05584-0.022-0.11461-0.042-0.16992-0.062l-0.42188 0.209s-1.8413 0.9134-3.4766 1.8066c-0.39642 0.1986-0.74414 0.6407-0.74414 0.6407 0 0.084 0.0099 0.1609 0.01367 0.2421a7 7 0 0 0 5.4863 2.6538 7 7 0 0 0 5.498-2.6816c2.9e-5 -0.01 2e-3 -0.012 2e-3 -0.018 0 0-0.14851-0.4923-0.54492-0.7402-2.1307-1.1909-3.5681-1.8366-3.7168-1.9356l-0.39062-0.1894c-0.08222 0.024-0.15315 0.053-0.22656 0.08 0.64611-0.29 1.25-0.9629 1.25-1.75v-1.8614c0-1.0537-0.84808-1.9023-1.9004-1.9023zm0.48047 5.5723c-0.15249 0.052-0.30484 0.086-0.44922 0.09 0.18355-0.016 0.32506-0.048 0.44922-0.09z"/><circle cx="-28.5" cy="1079.9" r="7" fill="none" stroke="#2b4255" stroke-dashoffset="1.4" stroke-linecap="square" overflow="visible" style="isolation:auto;mix-blend-mode:normal"/></g><g stroke-linejoin="round" transform="translate(361.5 -346) translate(-323 292)"><path fill="#60c5b8" stroke="#25b39e" stroke-linecap="round" d="m-28.533 1075.9c-1.0523 0-1.8984 0.8486-1.8984 1.9023v1.8614c0 0.783 0.59795 1.4517 1.2402 1.7441 0.0404 0.016 0.08124 0.03 0.12305 0.045 0.03588 0.014 0.07158 0.026 0.10742 0.037 0.12983 0.04 0.26953 0.071 0.43555 0.076h-0.0078c-0.1374 0-0.28165-0.031-0.42774-0.076-0.03728-0.011-0.07181-0.024-0.10742-0.037-0.0411-0.015-0.08216-0.026-0.12305-0.045-0.05584-0.022-0.11461-0.042-0.16992-0.062l-0.42188 0.209s-1.8413 0.9134-3.4766 1.8066c-0.39642 0.1986-0.74414 0.6407-0.74414 0.6407 0 0.084 0.0099 0.1609 0.01367 0.2421a7 7 0 0 0 5.4863 2.6538 7 7 0 0 0 5.498-2.6816c2.9e-5 -0.01 2e-3 -0.012 2e-3 -0.018 0 0-0.14851-0.4923-0.54492-0.7402-2.1307-1.1909-3.5681-1.8366-3.7168-1.9356l-0.39062-0.1894c-0.08222 0.024-0.15315 0.053-0.22656 0.08 0.64611-0.29 1.25-0.9629 1.25-1.75v-1.8614c0-1.0537-0.84808-1.9023-1.9004-1.9023zm0.48047 5.5723c-0.15249 0.052-0.30484 0.086-0.44922 0.09 0.18355-0.016 0.32506-0.048 0.44922-0.09z"/><circle cx="-28.5" cy="1079.9" r="7" fill="none" stroke="#2b4255" stroke-dashoffset="1.4" stroke-linecap="square" overflow="visible" style="isolation:auto;mix-blend-mode:normal"/></g><path fill="#25b39e" d="m-343 1369.4c-0.12442 0-0.24879 0.01-0.37305 0.014 0.24237 0.7871 0.37305 1.6221 0.37305 2.4863-1e-5 4.6767-3.8234 8.5-8.5 8.5-0.86222 0-1.6949-0.1317-2.4805-0.373-9e-3 0.1242-0.0151 0.2485-0.0195 0.373 0 6.0751 4.9249 11 11 11 0.12442 0 0.24878-0.01 0.37305-0.014-0.24237-0.7871-0.37305-1.6221-0.37305-2.4863 1e-5 -4.6766 3.8234-8.5 8.5-8.5 0.86222 0 1.6949 0.1317 2.4805 0.373 9e-3 -0.1242 0.0151-0.2485 0.0195-0.373 0-6.0751-4.9249-11-11-11z" overflow="visible" transform="translate(361.5 -346)" style="isolation:auto;mix-blend-mode:normal"/><path fill="#2b4255" d="M-343.92968 1367.4082l.0508.998.83985-.043.10742.01.0508-1-.13086-.01-.0508 0zm1.9961 1.0117l.11914 0 .82226.125.15039-.9883-.83984-.1269-.0488-.01-.15234-.01zm1.86914.3281l.60742.1563.30273.1113.34375-.9394-.33008-.1211-.0469-.014-.62891-.1621zm1.80078.6036l.90039.4316.43359-.9004-.90234-.4336zm1.71679.9199l.23047.1387.54883.4082.59766-.8008-.5625-.4199-.0391-.027-.25586-.1543zm1.51368 1.1505l.50586.459.18164.1992.73828-.6739-.19922-.2167-.0332-.035-.52148-.4727zm1.32422 1.3672l.5996.7988.80079-.5996-.60157-.8008zm1.10156 1.6074l.15429.25.28516.5918.90039-.4356-.29687-.6152-.0234-.041-.16602-.2715zm.81445 1.7148l.24805.6758.0586.2227.9668-.25-.0606-.2383-.0156-.047-.25977-.707zm.54492 1.8184l.15235.9883.98828-.1524-.15235-.9883zm.22266 1.9336l.0234.498-.0488.9727 1 .051.0508-.9981 0-.05-.0273-.5234zM-342.05702 1393.3032l-.051-.998-.8398.043-.1075-.01-.051 1 .1308.01.051 0zm-1.9961-1.0117l-.1191 0-.8223-.125-.1504.9883.8398.1269.049.01.1523.01zm-1.8691-.3281l-.6075-.1563-.3027-.1113-.3437.9394.33.1211.047.014.6289.1621zm-1.8008-.6036l-.9004-.4316-.4336.9004.9023.4336zm-1.7168-.9199l-.2305-.1387-.5488-.4082-.5977.8008.5625.4199.039.027.2558.1543zm-1.5137-1.1505l-.5059-.459-.1816-.1992-.7383.6739.1992.2167.033.035.5215.4727zm-1.3242-1.3672l-.5996-.7988-.8008.5996.6016.8008zm-1.1016-1.6074l-.1543-.25-.2851-.5918-.9004.4356.2969.6152.023.041.166.2715zm-.8144-1.7148l-.2481-.6758-.059-.2227-.9668.25.061.2383.016.047.2598.707zm-.5449-1.8184l-.1524-.9883-.9883.1524.1524.9883zm-.2227-1.9336l-.023-.498.049-.9727-1-.051-.051.9981 0 .05.027.5234z" font-family="sans-serif" font-weight="400" overflow="visible" transform="translate(361.5 -346)" white-space="normal" style="block-progression:tb;isolation:auto;mix-blend-mode:normal;text-decoration-color:#000;text-decoration-line:none;text-decoration-style:solid;text-indent:0;text-transform:none"/><g fill="#2b4255" fill-rule="evenodd" font-family="sans-serif" font-weight="400"><path d="m2 1046.4v3h1v-3h-1z" overflow="visible" transform="translate(361.5 -346) translate(-358 343)" white-space="normal" style="block-progression:tb;isolation:auto;mix-blend-mode:normal;text-decoration-color:#000;text-decoration-line:none;text-decoration-style:solid;text-indent:0;text-transform:none"/><path d="m1 1047.4v1h3v-1h-3z" overflow="visible" transform="translate(361.5 -346) translate(-358 343)" white-space="normal" style="block-progression:tb;isolation:auto;mix-blend-mode:normal;text-decoration-color:#000;text-decoration-line:none;text-decoration-style:solid;text-indent:0;text-transform:none"/></g><g fill="#2b4255" fill-rule="evenodd" font-family="sans-serif" font-weight="400"><path d="m2 1046.4v3h1v-3h-1z" overflow="visible" transform="translate(361.5 -346) translate(-332 325)" white-space="normal" style="block-progression:tb;isolation:auto;mix-blend-mode:normal;text-decoration-color:#000;text-decoration-line:none;text-decoration-style:solid;text-indent:0;text-transform:none"/><path d="m1 1047.4v1h3v-1h-3z" overflow="visible" transform="translate(361.5 -346) translate(-332 325)" white-space="normal" style="block-progression:tb;isolation:auto;mix-blend-mode:normal;text-decoration-color:#000;text-decoration-line:none;text-decoration-style:solid;text-indent:0;text-transform:none"/></g><g fill="#2b4255" fill-rule="evenodd" font-family="sans-serif" font-weight="400"><path d="m2 1046.4v3h1v-3h-1z" overflow="visible" transform="translate(361.5 -346) translate(-339 318)" white-space="normal" style="block-progression:tb;isolation:auto;mix-blend-mode:normal;text-decoration-color:#000;text-decoration-line:none;text-decoration-style:solid;text-indent:0;text-transform:none"/><path d="m1 1047.4v1h3v-1h-3z" overflow="visible" transform="translate(361.5 -346) translate(-339 318)" white-space="normal" style="block-progression:tb;isolation:auto;mix-blend-mode:normal;text-decoration-color:#000;text-decoration-line:none;text-decoration-style:solid;text-indent:0;text-transform:none"/></g></g></g></svg>