<svg xmlns="http://www.w3.org/2000/svg" viewBox="0 0 512 512" stroke="#000" xmlns:v="https://vecta.io/nano"><g stroke-miterlimit="10" stroke-width="15"><path fill="#f58775" d="M358.34 317.52v129A57.49 57.49 0 0 1 300.82 504H178.76a57.56 57.56 0 0 1-57.52-57.52v-129A50.64 50.64 0 0 1 171.86 267h136a50.6 50.6 0 0 1 50.31 45.6l.17 4.92z"/><path fill="none" d="M435 312.6v68.82a62.15 62.15 0 0 1-62.12 62.23h-14.54V317.52l-.2-4.92z"/><path fill="#c6ca75" d="M273.73 35.4V267h-87.65V35.4A21.39 21.39 0 0 1 207.47 14h44.86a21.39 21.39 0 0 1 21.4 21.39z"/><path fill="#f58775" d="M335.14 82.1c8.3-38.6 65.6-67.35 65.6-67.35C389.4 53.3 420.9 71.35 412.82 112c-2.86 14.53-16.46 26.87-31.93 30.36a36.51 36.51 0 0 1-23.32-2.06 36 36 0 0 1-15.37-13.62c-8.1-12.5-10.2-29.82-7.06-44.6z"/><path fill="#d4ece4" d="M380.93 142.33L336.27 275.8a50.56 50.56 0 0 0-28.45-8.79h-13.5l47.9-140.36a35.31 35.31 0 0 0 15.37 13.6 35.94 35.94 0 0 0 23.33 2.09z"/></g><g stroke-linejoin="round"><path fill="#2cbec6" stroke-width="15" d="M183.36,267h-11.5a50.23,50.23,0,0,0-29.39,9.41L77,98.62V14.74l54.7,64.32Z"/><path fill="#d4ece4" stroke-width="15" d="M131.7 79.06C110.36 109.9 77 98.62 77 98.62V14.74z"/><path stroke-width="15" d="M186.08 211.67h43.83m-43.83-62.75h43.83m-43.83-62.75h43.83" fill="none" stroke-linecap="round"/></g></svg>