<svg xmlns="http://www.w3.org/2000/svg" viewBox="0 0 512 512">
    <g data-name="Pen stand">
        <path fill="#f58775" stroke="#000" stroke-miterlimit="10" stroke-width="15" d="M358.34,317.52v129A57.49,57.49,0,0,1,300.82,504H178.76a57.56,57.56,0,0,1-57.52-57.52v-129A50.64,50.64,0,0,1,171.86,267h136a50.6,50.6,0,0,1,50.31,45.6C358.23,314.27,358.34,315.84,358.34,317.52Z"/>
        <path fill="none" stroke="#000" stroke-miterlimit="10" stroke-width="15" d="M435,312.6v68.82a62.15,62.15,0,0,1-62.12,62.23H358.34V317.52c0-1.67-.1-3.24-.21-4.92Z"/>
        <path fill="#c6ca75" stroke="#000" stroke-miterlimit="10" stroke-width="15" d="M273.73,35.39V267H186.08V35.39A21.39,21.39,0,0,1,207.47,14h44.86A21.39,21.39,0,0,1,273.73,35.39Z"/>
        <path fill="#f58775" stroke="#000" stroke-miterlimit="10" stroke-width="15" d="M335.14,82.09c8.3-38.6,65.6-67.35,65.6-67.35C389.41,53.31,420.9,71.35,412.82,112c-2.86,14.53-16.46,26.87-31.93,30.36a36.51,36.51,0,0,1-23.32-2.06,36,36,0,0,1-15.37-13.62C334.09,114.18,332,96.86,335.14,82.09Z"/>
        <path fill="#d4ece4" stroke="#000" stroke-miterlimit="10" stroke-width="15" d="M380.93,142.33,336.27,275.79A50.56,50.56,0,0,0,307.82,267H294.33l47.9-140.36a35.31,35.31,0,0,0,15.37,13.6A35.94,35.94,0,0,0,380.93,142.33Z"/>
        <path fill="#2cbec6" stroke="#000" stroke-linecap="round" stroke-linejoin="round" stroke-width="15" d="M183.36,267h-11.5a50.23,50.23,0,0,0-29.39,9.41L77,98.62V14.74l54.7,64.32Z"/>
        <path fill="#d4ece4" stroke="#000" stroke-linecap="round" stroke-linejoin="round" stroke-width="15" d="M131.7,79.06C110.36,109.91,77,98.62,77,98.62V14.74Z"/>
        <line x1="186.08" x2="229.91" y1="211.67" y2="211.67" fill="none" stroke="#000" stroke-linecap="round" stroke-linejoin="round" stroke-width="15"/>
        <line x1="186.08" x2="229.91" y1="148.92" y2="148.92" fill="none" stroke="#000" stroke-linecap="round" stroke-linejoin="round" stroke-width="15"/>
        <line x1="186.08" x2="229.91" y1="86.17" y2="86.17" fill="none" stroke="#000" stroke-linecap="round" stroke-linejoin="round" stroke-width="15"/>
    </g>
</svg>