<svg xmlns="http://www.w3.org/2000/svg" viewBox="0 0 24 24"><path fill="#303c42" d="M18 0H6C4.897 0 4 .897 4 2v20c0 1.103.897 2 2 2h12c1.103 0 2-.897 2-2V2c0-1.103-.897-2-2-2z"/><path fill="#d0e6f7" d="M6 1h12a1 1 0 0 1 1 1v17H5V2a1 1 0 0 1 1-1z"/><path fill="#f3f3f3" d="M18 23H6a1 1 0 0 1-1-1v-2h14v2a1 1 0 0 1-1 1z"/><g fill="#303c42"><path d="M11.5 3h1a.5.5 0 1 0 0-1h-1a.5.5 0 1 0 0 1zm2 18h-3a.5.5 0 1 0 0 1h3a.5.5 0 1 0 0-1z"/><circle cx="17.5" cy="2.5" r=".5"/><path d="M9 13c.6 0 1.133-.271 1.5-.69l2.545 1.272A2.002 2.002 0 0 0 15 16c1.103 0 2-.897 2-2s-.897-2-2-2c-.6 0-1.133.271-1.5.691l-2.546-1.273a1.994 1.994 0 0 0 0-.836L13.5 9.309c.367.42.9.691 1.5.691 1.103 0 2-.897 2-2s-.897-2-2-2a2.002 2.002 0 0 0-1.955 2.418L10.5 9.691C10.133 9.271 9.6 9 9 9c-1.103 0-2 .897-2 2s.897 2 2 2z"/></g><g fill="#3d82c4"><circle cx="15" cy="14" r="1"/><circle cx="15" cy="8" r="1"/><circle cx="9" cy="11" r="1"/></g><linearGradient id="A" gradientUnits="userSpaceOnUse" x1="11.347" y1="8.841" x2="20.253" y2="17.747"><stop offset="0" stop-color="#010101" stop-opacity=".1"/><stop offset="1" stop-color="#010101" stop-opacity="0"/></linearGradient><path fill="url(#A)" d="M19 9.179l-2.559-2.56c.344.36.559.845.559 1.381 0 1.103-.897 2-2 2-.6 0-1.133-.271-1.5-.691l-2.546 1.273a1.997 1.997 0 0 1 0 .837L13.5 12.69c.367-.42.9-.691 1.5-.691 1.103 0 2 .897 2 2s-.897 2-2 2a2.002 2.002 0 0 1-1.954-2.418L10.5 12.309c-.367.42-.9.691-1.5.691-.503 0-.959-.193-1.31-.502L14.19 19H19V9.179z"/><linearGradient id="B" gradientUnits="userSpaceOnUse" x1="1.429" y1="7.071" x2="22.571" y2="16.929"><stop offset="0" stop-color="#fff" stop-opacity=".2"/><stop offset="1" stop-color="#fff" stop-opacity="0"/></linearGradient><path fill="url(#B)" d="M18 0H6C4.897 0 4 .897 4 2v20c0 1.103.897 2 2 2h12c1.103 0 2-.897 2-2V2c0-1.103-.897-2-2-2z"/></svg>