<?xml version="1.0" encoding="UTF-8"?><!DOCTYPE svg PUBLIC "-//W3C//DTD SVG 1.1//EN" "http://www.w3.org/Graphics/SVG/1.1/DTD/svg11.dtd"><svg xmlns="http://www.w3.org/2000/svg" xmlns:xlink="http://www.w3.org/1999/xlink" version="1.1" id="Layer_1" x="0px" y="0px" width="140px" height="140px" viewBox="0 0 140 140" xml:space="preserve"><style type="text/css"><![CDATA[
	.st0{fill:#47BBF4;}
	.st1{fill:#7BEA06;}
	.st2{fill:#49E500;}
	.st3{fill:#7ED1B5;}
	.st4{fill:#1083DD;}
	.st5{fill:#7FBA0D;}
	.st6{fill:#E01726;}
	.st7{fill:#129AFF;}
	.st8{fill:#E2102E;}
	.st9{fill:#E2137A;}
	.st10{fill:#E2573B;}
	.st11{fill:#E2A60E;}
	.st12{fill:#E3443A;}
	.st13{fill:#1558BA;}
	.st14{fill:#159B81;}
	.st15{fill:#1644B7;}
	.st16{fill:#168BF4;}
	.st17{fill:#E51F32;}
	.st18{fill:#E6EFE8;}
	.st19{fill:#187FB8;}
	.st20{fill:#4C5054;}
	.st21{fill:#4C822A;}
	.st22{fill:#E8F9F8;}
	.st23{fill:#4F5459;}
	.st24{fill:#4FCCED;}
	.st25{fill:#B0C6C4;}
	.st26{fill:none;stroke:#33363A;stroke-width:3;stroke-linecap:round;stroke-linejoin:round;stroke-miterlimit:10;}
	.st27{fill:#859392;}
	.st28{fill:#1A68E5;}
	.st29{fill:#1A70F9;}
	.st30{fill:#1B8EED;}
	.st31{fill:#EA4606;}
	.st32{fill:#EA7B0C;}
	.st33{fill:#EAF4F9;}
	.st34{fill:#B70E10;}
	.st35{fill:#1CB1E6;}
	.st36{fill:#1CDDF7;}
	.st37{fill:#EDC211;}
	.st38{fill:#EF8114;}
	.st39{fill:#55932C;}
	.st40{fill:#569FEF;}
	.st41{fill:#BA30CE;}
	.st42{fill:#BA3A3A;}
	.st43{fill:#8CF41E;}
	.st44{fill:#59C96E;}
	.st45{fill:#8E0919;}
	.st46{fill:#20B5EC;}
	.st47{fill:#21CE52;}
	.st48{fill:#21D844;}
	.st49{fill:#F17250;}
	.st50{fill:#2364CE;}
	.st51{fill:#F2303F;}
	.st52{fill:#F24444;}
	.st53{fill:#F26B95;}
	.st54{fill:#F2A775;}
	.st55{fill:#2463FF;}
	.st56{fill:#24A9E6;}
	.st57{fill:#24AEF0;}
	.st58{fill:#F34B78;}
	.st59{fill:#25D600;}
	.st60{fill:#25D800;}
	.st61{fill:#F46300;}
	.st62{fill:#F4921E;}
	.st63{fill:#F4F1E6;}
	.st64{fill:#F72B2B;}
	.st65{fill:#F7441C;}
	.st66{fill:#F7851E;}
	.st67{fill:#5CAA4F;}
	.st68{fill:#F7A56D;}
	.st69{fill:#F7B257;}
	.st70{fill:#F7B92B;}
	.st71{fill:#F8571D;}
	.st72{fill:#F91D80;}
	.st73{fill:#F92E64;}
	.st74{fill:#F93838;}
	.st75{fill:#F9A121;}
	.st76{fill:#F9BD28;}
	.st77{fill:#F9D5AA;}
	.st78{fill:#5FB2A2;}
	.st79{fill:#9165B7;}
	.st80{fill:#95C675;}
	.st81{fill:#2A98F2;}
	.st82{fill:#2AC106;}
	.st83{fill:#C6232C;}
	.st84{fill:#C6402A;}
	.st85{fill:#FA7B7A;}
	.st86{fill:#FA9826;}
	.st87{fill:#2CC64D;}
	.st88{fill:#FB6620;}
	.st89{fill:#C7D5E0;}
	.st90{fill:#C8131A;}
	.st91{fill:#2DB487;}
	.st92{fill:#FC732D;}
	.st93{fill:#C8D8E8;}
	.st94{fill:#2ED3FF;}
	.st95{fill:#FF0DA9;}
	.st96{fill:#FF4743;}
	.st97{fill:#FF6155;}
	.st98{fill:#FF7639;}
	.st99{fill:#FF7676;}
	.st100{fill:#FF88AD;}
	.st101{fill:#FF9064;}
	.st102{fill:#FFA506;}
	.st103{fill:#FFBE8D;}
	.st104{fill:#FFEB5A;}
	.st105{fill:#FFF19C;}
	.st106{fill:#FFFDF5;}
	.st107{fill:#FFFFFF;}
	.st108{fill:#63C605;}
	.st109{fill:#64C0FF;}
	.st110{fill:#66A00A;}
	.st111{fill:#CAFFE9;}
	.st112{fill:#680719;}
	.st113{fill:none;stroke:#FCE2AE;stroke-width:3;stroke-linecap:round;stroke-linejoin:round;stroke-miterlimit:10;}
	.st114{fill:#CC2414;}
	.st115{fill:#CC4521;}
	.st116{fill:#9DEACE;}
	.st117{fill:#303030;}
	.st118{fill:#CE1721;}
	.st119{fill:#33363A;}
	.st120{fill:#337BD1;}
	.st121{fill:#6A7C7C;}
	.st122{fill:#37D660;}
	.st123{fill:#384948;}
	.st124{fill:#38B4F9;}
	.st125{fill:#6CA9EA;}
	.st126{fill:#6D8599;}
	.st127{fill:#0097E2;}
	.st128{fill:#00997C;}
	.st129{fill:#00A4DD;}
	.st130{fill:#0399FF;}
	.st131{fill:#D33F26;}
	.st132{fill:#0695ED;}
	.st133{fill:#0779EA;}
	.st134{fill:#079332;}
	.st135{fill:#D6381E;}
	.st136{fill:#3BAA00;}
	.st137{fill:#D6E5EA;}
	.st138{fill:#D6E7EA;}
	.st139{fill:#08A548;}
	.st140{fill:#08BC26;}
	.st141{fill:#D80B0B;}
	.st142{fill:#D8532B;}
	.st143{fill:#3DC8F9;}
	.st144{fill:#3E77BF;}
	.st145{fill:#3E8AF7;}
	.st146{fill:#D9E5ED;}
	.st147{fill:#72818E;}
	.st148{fill:#0A78DD;}
	.st149{fill:#0A8CDD;}
	.st150{fill:#A52D21;}
	.st151{fill:#76CEFF;}
	.st152{fill:#76DB00;}
	.st153{fill:#0C86EA;}
	.st154{fill:#DB0F4E;}
	.st155{fill:#A7B7B6;}
	.st156{fill:#0DBA5B;}
	.st157{fill:#79B259;}
	.st158{fill:#0E73D8;}
	.st159{fill:#0E78D8;}
	.st160{fill:#0E8971;}
	.st161{fill:#A981D3;}
	.st162{fill:#DD4B4B;}
	.st163{fill:#4087ED;}
	.st164{fill:#40A557;}
	.st165{fill:#40E269;}
	.st166{fill:#DFC7FF;}
	.st167{fill:#DFEFEF;}
	.st168{fill:#44FCB6;}
]]></style><path class="st86" d="M26.165 96.303c-9.679 0-17.534 7.852-17.534 17.535 0 9.682 7.855 17.533 17.534 17.533 9.684 0 17.536-7.852 17.536-17.533 0-9.684-7.852-17.535-17.536-17.535z" fill="#FA9826"/><path class="st38" d="M8.629 49.543v23.381c32.231 0 58.452 26.219 58.452 58.447h23.377c0-45.119-36.707-81.828-81.829-81.828z" fill="#EF8114"/><path class="st38" d="M8.631 8.629v23.379c54.789 0 99.365 44.572 99.365 99.363h23.375c0-67.678-55.06-122.742-122.74-122.742z" fill="#EF8114"/><path class="st86" d="M26.165 96.303c-9.679 0-17.534 7.852-17.534 17.535 0 9.682 7.855 17.533 17.534 17.533 9.684 0 17.536-7.852 17.536-17.533 0-9.684-7.852-17.535-17.536-17.535z" fill="#FA9826"/><path class="st86" d="M8.629 49.543v23.381c30.031 0 54.837 22.77 58.08 51.949 8.011-2.318 15.479-5.33 22.276-8.908-7.229-37.776-40.503-66.422-80.356-66.422z" fill="#FA9826"/><g><path class="st86" d="M26.165 96.303c-9.679 0-17.534 7.852-17.534 17.535 0 5.623 2.659 10.615 6.776 13.822 9.491-3.412 19.038-8.305 28.255-14.59-.405-9.322-8.072-16.767-17.497-16.767z" fill="#FA9826"/><path class="st86" d="M8.629 49.543v23.381c21.223 0 39.833 11.369 50.075 28.33a147.845 147.845 0 0 0 5.882-5.545 147.83 147.83 0 0 0 10.623-11.824C60.351 63.119 36.053 49.543 8.629 49.543z" fill="#FA9826"/><path class="st86" d="M8.631 8.629v23.379c31.115 0 58.921 14.383 77.157 36.84 4.569-7.514 8.221-15.191 10.928-22.828C74.392 22.986 43.166 8.629 8.631 8.629z" fill="#FA9826"/></g><g><path class="st76" d="M34.413 98.367a17.473 17.473 0 0 0-8.248-2.064c-9.679 0-17.534 7.852-17.534 17.535 0 3.365.967 6.498 2.61 9.17 8.868-5.795 16.751-14.223 23.172-24.641z" fill="#F9BD28"/><path class="st76" d="M49.168 60.334A81.3 81.3 0 0 0 8.629 49.543v23.381c12.415 0 23.928 3.902 33.403 10.527 3.003-7.166 5.415-14.918 7.136-23.117z" fill="#F9BD28"/><path class="st76" d="M8.631 32.008c15.452 0 30.083 3.545 43.137 9.861.282-3.707.438-7.465.438-11.283 0-4.824-.247-9.564-.693-14.211A122.15 122.15 0 0 0 8.631 8.629v23.379z" fill="#F9BD28"/></g><g><path class="st26" d="M26.165 96.303c-9.679 0-17.534 7.852-17.534 17.535 0 9.682 7.855 17.533 17.534 17.533 9.684 0 17.536-7.852 17.536-17.533 0-9.684-7.852-17.535-17.536-17.535z" fill="none" stroke="#33363A" stroke-linecap="round" stroke-linejoin="round" stroke-miterlimit="10" stroke-width="3"/><path class="st26" d="M8.629 49.543v23.381c32.231 0 58.452 26.219 58.452 58.447h23.377c0-45.119-36.707-81.828-81.829-81.828z" fill="none" stroke="#33363A" stroke-linecap="round" stroke-linejoin="round" stroke-miterlimit="10" stroke-width="3"/><path class="st26" d="M8.631 8.629v23.379c54.789 0 99.365 44.572 99.365 99.363h23.375c0-67.678-55.06-122.742-122.74-122.742z" fill="none" stroke="#33363A" stroke-linecap="round" stroke-linejoin="round" stroke-miterlimit="10" stroke-width="3"/><path class="st26" d="M26.165 96.303c-9.679 0-17.534 7.852-17.534 17.535 0 9.682 7.855 17.533 17.534 17.533 9.684 0 17.536-7.852 17.536-17.533 0-9.684-7.852-17.535-17.536-17.535z" fill="none" stroke="#33363A" stroke-linecap="round" stroke-linejoin="round" stroke-miterlimit="10" stroke-width="3"/><path class="st26" d="M88.985 115.965C81.756 78.189 48.482 49.543 8.629 49.543v23.381c30.031 0 54.837 22.77 58.08 51.949" fill="none" stroke="#33363A" stroke-linecap="round" stroke-linejoin="round" stroke-miterlimit="10" stroke-width="3"/><path class="st26" d="M122.271 85.062C103.954 40.277 59.93 8.629 8.631 8.629v23.379c45.931 0 84.667 31.33 95.997 73.742" fill="none" stroke="#33363A" stroke-linecap="round" stroke-linejoin="round" stroke-miterlimit="10" stroke-width="3"/><g><path class="st26" d="M43.662 113.07c-.405-9.322-8.072-16.768-17.497-16.768-9.679 0-17.534 7.852-17.534 17.535 0 5.623 2.659 10.615 6.776 13.822" fill="none" stroke="#33363A" stroke-linecap="round" stroke-linejoin="round" stroke-miterlimit="10" stroke-width="3"/><path class="st26" d="M75.209 83.885C60.351 63.119 36.053 49.543 8.629 49.543v23.381c21.223 0 39.833 11.369 50.075 28.33" fill="none" stroke="#33363A" stroke-linecap="round" stroke-linejoin="round" stroke-miterlimit="10" stroke-width="3"/><path class="st26" d="M96.716 46.02C74.392 22.986 43.166 8.629 8.631 8.629v23.379c31.115 0 58.921 14.383 77.157 36.84" fill="none" stroke="#33363A" stroke-linecap="round" stroke-linejoin="round" stroke-miterlimit="10" stroke-width="3"/></g><g><path class="st26" d="M34.413 98.367a17.473 17.473 0 0 0-8.248-2.064c-9.679 0-17.534 7.852-17.534 17.535 0 3.365.967 6.498 2.61 9.17" fill="none" stroke="#33363A" stroke-linecap="round" stroke-linejoin="round" stroke-miterlimit="10" stroke-width="3"/><path class="st26" d="M49.168 60.334A81.3 81.3 0 0 0 8.629 49.543v23.381c12.415 0 23.928 3.902 33.403 10.527" fill="none" stroke="#33363A" stroke-linecap="round" stroke-linejoin="round" stroke-miterlimit="10" stroke-width="3"/><path class="st26" d="M51.513 16.375A122.15 122.15 0 0 0 8.631 8.629v23.379c15.452 0 30.083 3.545 43.137 9.861" fill="none" stroke="#33363A" stroke-linecap="round" stroke-linejoin="round" stroke-miterlimit="10" stroke-width="3"/></g></g><metadata><rdf:RDF xmlns:rdf="http://www.w3.org/1999/02/22-rdf-syntax-ns#" xmlns:rdfs="http://www.w3.org/2000/01/rdf-schema#" xmlns:dc="http://purl.org/dc/elements/1.1/"><rdf:Description about="https://iconscout.com/legal#licenses" dc:title="rss" dc:description="rss" dc:publisher="Iconscout" dc:date="2018-01-30" dc:format="image/svg+xml" dc:language="en"><dc:creator><rdf:Bag><rdf:li>Roundicons.com</rdf:li></rdf:Bag></dc:creator></rdf:Description></rdf:RDF></metadata></svg>