<svg xmlns="http://www.w3.org/2000/svg" xmlns:xlink="http://www.w3.org/1999/xlink" width="140" height="140" xmlns:v="https://vecta.io/nano"><use xlink:href="#B" fill="#fa9826"/><g fill="#ef8114"><use xlink:href="#C"/><use xlink:href="#D"/></g><g fill="#fa9826"><use xlink:href="#B"/><path d="M8.63 49.543v23.38c30.03 0 54.837 22.77 58.08 51.95 8-2.318 15.48-5.33 22.276-8.908C81.756 78.2 48.482 49.543 8.63 49.543zm17.535 46.76c-9.68 0-17.534 7.852-17.534 17.535 0 5.623 2.66 10.615 6.776 13.822 9.5-3.412 19.038-8.305 28.255-14.6-.405-9.322-8.072-16.767-17.497-16.767z"/><path d="M8.63 49.543v23.38c21.223 0 39.833 11.37 50.075 28.33a147.845 147.845 0 0 0 5.882-5.545A147.83 147.83 0 0 0 75.21 83.884C60.35 63.12 36.053 49.543 8.63 49.543zm0-40.913V32c31.115 0 58.92 14.383 77.157 36.84 4.57-7.514 8.22-15.2 10.928-22.828C74.392 22.986 43.166 8.63 8.63 8.63z"/></g><path d="M34.413 98.367a17.473 17.473 0 0 0-8.248-2.064c-9.68 0-17.534 7.852-17.534 17.535a17.53 17.53 0 0 0 2.6 9.17c8.868-5.795 16.75-14.223 23.172-24.64zm14.755-38.033A81.3 81.3 0 0 0 8.629 49.543v23.38A58.1 58.1 0 0 1 42.032 83.45c3.003-7.166 5.415-14.918 7.136-23.117zM8.63 32.008c15.452 0 30.083 3.545 43.137 9.86.282-3.707.438-7.465.438-11.283 0-4.824-.247-9.564-.693-14.2A122.15 122.15 0 0 0 8.631 8.629v23.38z" fill="#f9bd28"/><g fill="none" stroke="#33363a" stroke-linejoin="round" stroke-miterlimit="10" stroke-width="3"><use xlink:href="#B"/><use xlink:href="#C"/><use xlink:href="#D"/><use xlink:href="#B"/><g stroke-linecap="round"><path d="M88.985 115.965C81.756 78.2 48.482 49.543 8.63 49.543v23.38c30.03 0 54.837 22.77 58.08 51.95m55.56-39.81C103.954 40.277 59.93 8.63 8.63 8.63V32c45.93 0 84.667 31.33 95.997 73.742"/><path d="M43.662 113.07c-.405-9.322-8.072-16.768-17.497-16.768-9.68 0-17.534 7.852-17.534 17.535 0 5.623 2.66 10.615 6.776 13.822M75.2 83.885C60.35 63.12 36.053 49.543 8.63 49.543v23.38c21.223 0 39.833 11.37 50.075 28.33"/><path d="M96.716 46.02C74.392 22.986 43.166 8.63 8.63 8.63V32c31.115 0 58.92 14.383 77.157 36.84M34.413 98.367a17.473 17.473 0 0 0-8.248-2.064c-9.68 0-17.534 7.852-17.534 17.535a17.53 17.53 0 0 0 2.6 9.17"/><path d="M49.168 60.334A81.3 81.3 0 0 0 8.629 49.543v23.38A58.1 58.1 0 0 1 42.032 83.45m9.48-67.075A122.15 122.15 0 0 0 8.631 8.629v23.38c15.452 0 30.083 3.545 43.137 9.86"/></g></g><defs ><path id="B" d="M26.165 96.303c-9.68 0-17.534 7.852-17.534 17.535a17.54 17.54 0 0 0 17.534 17.533 17.54 17.54 0 0 0 17.536-17.533 17.54 17.54 0 0 0-17.536-17.535z"/><path id="C" d="M8.63 49.543v23.38c32.23 0 58.452 26.22 58.452 58.447h23.377c0-45.12-36.707-81.828-81.83-81.828z"/><path id="D" d="M8.63 8.63v23.38c54.79 0 99.365 44.572 99.365 99.363h23.375C131.37 63.693 76.31 8.63 8.63 8.63z"/></defs></svg>