<svg xmlns="http://www.w3.org/2000/svg" viewBox="0 0 64 64">
    <path fill="#f3c016" d="M58.929,32.831l-17.2-17.2a1.242,1.242,0,0,0-2.12.878v9.386c-17.389,0-27.327,8.694-29.809,27.324,11.178-8.694,18.63-9.936,29.809-9.936v9.385a1.242,1.242,0,0,0,2.12.878l17.2-17.2A2.484,2.484,0,0,0,58.929,32.831Z"/>
    <path d="M38.2,52.323a2.247,2.247,0,0,1-2.244-2.243V41.7C25,41.782,18.142,43.342,7.757,51.42A1,1,0,0,1,6.151,50.5c2.481-18.621,12.233-27.849,29.8-28.184v-8.4a2.242,2.242,0,0,1,3.827-1.585l17.2,17.2a3.486,3.486,0,0,1,0,4.926l-17.2,17.2A2.235,2.235,0,0,1,38.2,52.323ZM36.951,39.694a1,1,0,0,1,1,1V50.08a.242.242,0,0,0,.413.17l17.2-17.2a1.484,1.484,0,0,0,0-2.1l-17.2-17.2A.227.227,0,0,0,38.1,13.7a.223.223,0,0,0-.15.223v9.386a1,1,0,0,1-1,1c-16.232,0-25.557,7.87-28.442,24.043C18.553,41.034,25.891,39.694,36.951,39.694Z"/>
</svg>