<svg xmlns="http://www.w3.org/2000/svg" viewBox="0 0 64 64" xmlns:v="https://vecta.io/nano"><path fill="#f3c016" d="M58.93 32.83l-17.2-17.2a1.242 1.242 0 0 0-2.12.878v9.386c-17.39 0-27.327 8.694-29.81 27.324 11.178-8.694 18.63-9.936 29.81-9.936v9.385a1.242 1.242 0 0 0 2.12.878l17.2-17.2a2.484 2.484 0 0 0 0-3.515z"/><path d="M38.2 52.323a2.247 2.247 0 0 1-2.244-2.243V41.7c-10.956.082-17.814 1.642-28.2 9.72a1 1 0 0 1-1.606-.92c2.48-18.62 12.233-27.85 29.8-28.184v-8.4a2.242 2.242 0 0 1 3.827-1.585l17.2 17.2a3.486 3.486 0 0 1 0 4.926l-17.2 17.2a2.235 2.235 0 0 1-1.578.666zm-1.25-12.63a1 1 0 0 1 1 1v9.386a.242.242 0 0 0 .413.17l17.2-17.2a1.484 1.484 0 0 0 0-2.1l-17.2-17.2a.227.227 0 0 0-.264-.05.223.223 0 0 0-.15.223v9.386a1 1 0 0 1-1 1c-16.232 0-25.557 7.87-28.442 24.043 10.045-7.318 17.383-8.658 28.443-8.658z"/></svg>