<svg xmlns="http://www.w3.org/2000/svg" viewBox="0 0 48 48" xmlns:v="https://vecta.io/nano"><path d="M8 25V9c0-1.7 1.398-3 3-3h26c1.7 0 3 1.3 3 3v16" fill="none" stroke-width="2" stroke="#bdbdbd" stroke-miterlimit="10"/><path d="M25 20c0-2.8 2.2-5 5-5s5 2.2 5 5-2.2 5-5 5-5-2.2-5-5zm18.8 1.602c.098-.204.2-.301.2-.602 0-.602-.398-1-1-1-.2 0-.398.102-.602.2l-.097.1C41.398 21.2 36.199 26 31 26h-3.7C26 26 25 27.102 25 28.3v11.098c0 2 1.602 3.602 3.602 3.602h1.296c3.903 0 7.204-3.2 7.204-7.2 0 0 .097-3.6-1.403-6 3.102-1.3 7.602-6.198 8.102-8.198z" fill="#0277bd"/><path d="M25 30.7v4.1c1.898-.6 6.2-2.5 6-6.8-2.5 2.398-4.7 2.8-6 2.7z" fill="#01579b"/><path d="M18 15c2.8 0 5 2.2 5 5s-2.2 5-5 5-5-2.2-5-5 2.2-5 5-5zm13 13c0-.602-.398-1-1-1-.398 0-.8.3-.898.602C28 29.602 25.8 30.8 22.3 26.5v.102c-.403-.403-1-.602-1.602-.602H17c-5.2 0-10.398-4.8-11.3-5.7l-.098-.1c-.204-.098-.403-.2-.602-.2-.602 0-1 .398-1 1 0 .2.102.398.2.602.5 2 5 7 8.198 8.199-1.5 2.5-1.398 6-1.398 6C11 39.699 14.2 43 18.2 43h1.3c2 0 3.602-1.602 3.602-3.602v-7.597c2 .898 6.398 1.3 7.796-3.301 0-.102.102-.3.102-.5z" fill="#fb8c00"/></svg>