<svg xmlns="http://www.w3.org/2000/svg" width="2500" height="1824" viewBox="0 0 98.676 72" xmlns:v="https://vecta.io/nano"><path d="M46.906 38.006c4.51-1.443 8.646-5.12 12.54-7.682 3.608-2.354 10.152-7.66 14.756-7.654 4.683.026-3.1 4.484-4.412 5.38 2.604-.1 5.62-1.805 8.164-1.01-.643 2.008-5.81 3.805-7.758 4.85 2.48-.943 5.16-1.196 7.725-1.732-.313 1.022-1.886 1.65-2.896 2.17-3.366 1.855-6.5 3.518-9.64 5.79C58.99 42.74 54.838 45.55 46.72 45.04" fill="#2e79b8"/><path d="M54.906 69.17c-.32-.997-2.407-2.005-3.323-2.352 1.674.324 3.67.293 1.85-1.543-1.64-1.635-4.07-2.547-6.16-3.45 1.896.033 7.915.78 4.236-2.187-3.01-2.387-7.535-4.606-11.265-5.602.96.053 4.518.832 4.577-.384.015-.694-2-2.014-2.44-2.36-1.958-1.65-4.015-3.21-6.25-4.457-5.043-2.815-12.156-4.834-17.653-1.97-1.21.622-1.743 1.637-1.882 2.76-3.263-7.7-3.688-16.642-.74-25.187 4.392-12.67 19.68-21.292 31.24-11.347 11.82 10.17 8.582 29.76 18.877 41.43 9.51 10.808 22.49 10.123 32.706 1.15C87.34 70.807 69.132 73.816 52.93 71.146c1.178-.29 2.322-.76 1.976-1.976" fill="#86c6de"/><path d="M16.594 47.628c.14-1.124.673-2.14 1.882-2.76 5.497-2.865 12.6-.848 17.652 1.97 2.237 1.248 4.294 2.805 6.252 4.457.433.348 2.456 1.666 2.44 2.36-.06 1.215-3.618.436-4.577.383 3.73.994 8.254 3.215 11.265 5.602 3.68 2.965-2.34 2.22-4.236 2.187 2.1.903 4.52 1.815 6.16 3.45 1.82 1.837-.176 1.87-1.85 1.543.916.348 3.004 1.354 3.323 2.353.346 1.217-.8 1.687-1.978 1.978-7.327-1.205-14.23-3.555-19.912-6.312a33.46 33.46 0 0 1-16.422-17.21" fill="#c1e7f0"/><path d="M25.498 23.643c-.576 4.73 1.414 8.867 4.42 9.228 3.014.38 5.918-3.18 6.49-7.916.578-4.718-1.37-8.863-4.405-9.226-3-.356-5.935 3.153-6.504 7.914" fill="#fff"/><path d="M31.564 19.403c1.347.167 2.33 1.665 2.523 3.61l-2.984.828 2.634 2.298c-.612 1.93-1.987 3.234-3.384 3.074-1.692-.21-2.844-2.6-2.504-5.295.324-2.706 1.987-4.738 3.715-4.516"/><path d="M15.326 24.235c-.62 2.022-6.592-.23-7.673-.877-1.85-1.105-3.404-2.584-4.343-4.487.306 4.07 4.508 11.743 10.492 10.947-4.405 1.1-8.835 1.48-13.802-.832.552.688.838.93 1.334 1.393 1.45 1.37 3.167 2.276 5.047 3.005 2.53.967 6.513 1.93 9.216 1.13 2.532-.75 4.1-3.695 3.3-6.18-.52-1.78-2.02-3.21-3.502-4.283m25.526-2.128c1.763-10.967-4.858-14.01-10.835-10.657 8.628-1.987 10.913 5.47 10.835 10.657" fill="#2e79b8"/><path d="M53.107 42.71c4.64-.89 9.176-4.05 13.382-6.097 3.896-1.896 10.994-6.37 15.578-5.764 4.624.583-3.628 4.058-5.05 4.787 2.59.223 5.803-1.11 8.225-.013-.872 1.924-6.225 3.063-8.3 3.856 2.588-.617 5.27-.528 7.885-.758-.398.974-2.068 1.398-3.142 1.803-3.532 1.402-6.9 2.693-10.27 4.566-6.915 3.795-11.375 6.066-19.376 4.57" fill="#86c6de"/><path d="M55.222 24.52C54.767 18.41 46.725 3.833 41.35 1.2c.062 1.442.894 2.81 1.947 3.835C41.184 2.52 38.143.666 34.96 0c.184 2.212 3.24 3.66 5.1 4.506-1.408-.55-8.812-4.493-9.78-2.606-1.138 2.136 5.045 3.594 6.078 4.052 6.192 2.57 11.69 6.594 15.807 11.872" fill="#c1e7f0"/></svg>