<svg xmlns="http://www.w3.org/2000/svg" viewBox="0 0 64 64"><g data-name="4"><rect width="33.5" height="24.08" x="14.8" y="9.1" fill="#78cbec" rx="3.3" ry="3.3"/><path fill="#34b5e1" d="M48.3,12.5V29.9A3.3,3.3,0,0,1,45,33.2H39.8a3.3,3.3,0,0,0,3.3-3.3V12.5a3.3,3.3,0,0,0-3.3-3.3H45A3.3,3.3,0,0,1,48.3,12.5Z"/><path fill="#dadada" d="M48.3,28.8v1.1A3.3,3.3,0,0,1,45,33.2H18.2a3.3,3.3,0,0,1-3.3-3.3V28.8Z"/><path fill="#ccccca" d="M48.3,28.8v1.1A3.3,3.3,0,0,1,45,33.2H39.8a3.3,3.3,0,0,0,3.3-3.3V28.8Z"/><polygon fill="#5c586f" points="35.2 39.7 27.9 39.7 28.5 33.2 34.6 33.2 35.2 39.7"/><polygon fill="#4f4c5f" points="35.2 39.7 32.3 39.7 31.7 33.2 34.6 33.2 35.2 39.7"/><path fill="#dadada" d="M56.8,39.8H7.2a3.2,3.2,0,1,0,0,6.5H56.8a3.2,3.2,0,1,0,0-6.5Z"/><path fill="#ccccca" d="M60,43.1a3.2,3.2,0,0,1-3.2,3.2H50.7a3.2,3.2,0,0,0,3.2-3.2,3.2,3.2,0,0,0-3.2-3.2h6.1A3.2,3.2,0,0,1,60,43.1Z"/><rect width="41" height="8.6" x="11.5" y="46.3" fill="#5c586f"/><rect width="5.7" height="8.6" x="46.8" y="46.3" fill="#4f4c5f"/><path d="M56.8,38.8H36.2l-.4-4.7H45a4.3,4.3,0,0,0,4.3-4.3V12.5A4.3,4.3,0,0,0,45,8.1H18.2a4.3,4.3,0,0,0-4.3,4.3v3.4a1,1,0,0,0,2,0V12.5a2.3,2.3,0,0,1,2.3-2.3H45a2.3,2.3,0,0,1,2.3,2.3V27.8H15.8v-9a1,1,0,0,0-2,0V29.9a4.3,4.3,0,0,0,4.3,4.3h9.2L27,38.8H18.8a1,1,0,0,0,0,2h38a2.2,2.2,0,0,1,0,4.5H7.2a2.2,2.2,0,0,1,0-4.5h3.5a1,1,0,0,0,0-2H7.2a4.2,4.2,0,0,0,0,8.5h3.3v7.6a1,1,0,0,0,1,1h41a1,1,0,0,0,1-1V47.3h3.3a4.2,4.2,0,0,0,0-8.5Zm-40.9-9H47.3A2.3,2.3,0,0,1,45,32.2H18.2A2.3,2.3,0,0,1,15.8,29.9Zm17.9,4.3.4,4.5H29l.4-4.5ZM51.5,53.9h-39V47.3h39Z"/><path d="M13.6,40.8h1.8a1,1,0,0,0,0-2H13.6a1,1,0,0,0,0,2Z"/></g></svg>