<svg xmlns="http://www.w3.org/2000/svg" viewBox="0 0 64 64" xmlns:v="https://vecta.io/nano"><rect width="33.5" height="24.08" x="14.8" y="9.1" fill="#78cbec" rx="3.3"/><path fill="#34b5e1" d="M48.3 12.5v17.4a3.3 3.3 0 0 1-3.3 3.3h-5.2a3.3 3.3 0 0 0 3.3-3.3V12.5a3.3 3.3 0 0 0-3.3-3.3H45a3.3 3.3 0 0 1 3.3 3.3z"/><path fill="#dadada" d="M48.3,28.8v1.1A3.3,3.3,0,0,1,45,33.2H18.2a3.3,3.3,0,0,1-3.3-3.3V28.8Z"/><path fill="#ccccca" d="M48.3,28.8v1.1A3.3,3.3,0,0,1,45,33.2H39.8a3.3,3.3,0,0,0,3.3-3.3V28.8Z"/><path fill="#5c586f" d="M35.2 39.7h-7.3l.6-6.5h6.1l.6 6.5z"/><path fill="#4f4c5f" d="M35.2 39.7h-2.9l-.6-6.5h2.9l.6 6.5z"/><path fill="#dadada" d="M56.8,39.8H7.2a3.2,3.2,0,1,0,0,6.5H56.8a3.2,3.2,0,1,0,0-6.5Z"/><path fill="#ccccca" d="M60 43.1a3.2 3.2 0 0 1-3.2 3.2h-6.1a3.2 3.2 0 1 0 0-6.4h6.1a3.2 3.2 0 0 1 3.2 3.2z"/><path fill="#5c586f" d="M11.5 46.3h41v8.6h-41z"/><path fill="#4f4c5f" d="M46.8 46.3h5.7v8.6h-5.7z"/><path d="M56.8 38.8H36.2l-.4-4.7H45a4.3 4.3 0 0 0 4.3-4.3V12.5A4.3 4.3 0 0 0 45 8.1H18.2a4.3 4.3 0 0 0-4.3 4.3v3.4a1 1 0 0 0 2 0v-3.3a2.3 2.3 0 0 1 2.3-2.3H45a2.3 2.3 0 0 1 2.3 2.3v15.3H15.8v-9a1 1 0 0 0-2 0v11.1a4.3 4.3 0 0 0 4.3 4.3h9.2l-.3 4.6h-8.2a1 1 0 0 0 0 2h38a2.25 2.25 0 0 1 0 4.5H7.2a2.25 2.25 0 0 1 0-4.5h3.5a1 1 0 0 0 0-2H7.2a4.25 4.25 0 0 0 0 8.5h3.3v7.6a1 1 0 0 0 1 1h41a1 1 0 0 0 1-1v-7.6h3.3a4.25 4.25 0 0 0 0-8.5zm-40.9-9h31.4a2.3 2.3 0 0 1-2.3 2.4H18.2a2.3 2.3 0 0 1-2.4-2.3zm17.9 4.3l.4 4.5H29l.4-4.5zm17.7 19.8h-39v-6.6h39zM13.6 40.8h1.8a1 1 0 0 0 0-2h-1.8a1 1 0 0 0 0 2z"/></svg>